<svg width="20" height="20" viewBox="0 0 20 20" fill="none" xmlns="http://www.w3.org/2000/svg">
<path d="M17.5 15C17.37 15 17.24 15 17.11 15.04L15.5 11.79C15.8562 11.4427 16.1008 10.9969 16.2022 10.5098C16.3037 10.0227 16.2575 9.51642 16.0696 9.05573C15.8816 8.59503 15.5605 8.20088 15.1473 7.92374C14.7341 7.64659 14.2476 7.49905 13.75 7.5C13.62 7.5 13.5 7.5 13.36 7.54L11.73 4.29C12.21 3.84 12.5 3.21 12.5 2.5C12.5 1.83696 12.2366 1.20107 11.7678 0.732233C11.2989 0.263392 10.663 0 10 0C9.33696 0 8.70107 0.263392 8.23223 0.732233C7.76339 1.20107 7.5 1.83696 7.5 2.5C7.5 3.21 7.79 3.84 8.26 4.29L6.64 7.54C6.5 7.5 6.38 7.5 6.25 7.5C5.75245 7.49905 5.26593 7.64659 4.85271 7.92374C4.43949 8.20088 4.11836 8.59503 3.93043 9.05573C3.7425 9.51642 3.69632 10.0227 3.79778 10.5098C3.89925 10.9969 4.14375 11.4427 4.5 11.79L2.89 15.04C2.76 15 2.63 15 2.5 15C1.83696 15 1.20107 15.2634 0.732233 15.7322C0.263392 16.2011 0 16.837 0 17.5C0 18.163 0.263392 18.7989 0.732233 19.2678C1.20107 19.7366 1.83696 20 2.5 20C2.8283 20 3.15339 19.9353 3.45671 19.8097C3.76002 19.6841 4.03562 19.4999 4.26777 19.2678C4.49991 19.0356 4.68406 18.76 4.8097 18.4567C4.93534 18.1534 5 17.8283 5 17.5C5 16.8 4.71 16.16 4.24 15.71L5.86 12.46C6 12.5 6.12 12.5 6.25 12.5C6.38 12.5 6.5 12.5 6.64 12.46L8.27 15.71C7.8 16.16 7.5 16.8 7.5 17.5C7.5 18.163 7.76339 18.7989 8.23223 19.2678C8.70107 19.7366 9.33696 20 10 20C10.663 20 11.2989 19.7366 11.7678 19.2678C12.2366 18.7989 12.5 18.163 12.5 17.5C12.5 16.837 12.2366 16.2011 11.7678 15.7322C11.2989 15.2634 10.663 15 10 15C9.87 15 9.74 15 9.61 15.04L8 11.79C8.46 11.34 8.75 10.71 8.75 10C8.75 9.29 8.46 8.66 8 8.21L9.61 4.96C9.74 5 9.87 5 10 5C10.13 5 10.26 5 10.39 4.96L12 8.21C11.55 8.66 11.25 9.3 11.25 10C11.25 10.663 11.5134 11.2989 11.9822 11.7678C12.4511 12.2366 13.087 12.5 13.75 12.5C13.88 12.5 14 12.5 14.14 12.46L15.77 15.71C15.3 16.16 15 16.8 15 17.5C15 18.163 15.2634 18.7989 15.7322 19.2678C16.2011 19.7366 16.837 20 17.5 20C18.163 20 18.7989 19.7366 19.2678 19.2678C19.7366 18.7989 20 18.163 20 17.5C20 16.837 19.7366 16.2011 19.2678 15.7322C18.7989 15.2634 18.163 15 17.5 15Z" fill="white"/>
</svg>
