<svg width="15" height="15" viewBox="0 0 15 15" xmlns="http://www.w3.org/2000/svg">
<path d="M7.5 0C9.48912 0 11.3968 0.790176 12.8033 2.1967C14.2098 3.60322 15 5.51088 15 7.5C15 9.48912 14.2098 11.3968 12.8033 12.8033C11.3968 14.2098 9.48912 15 7.5 15C5.51088 15 3.60322 14.2098 2.1967 12.8033C0.790176 11.3968 0 9.48912 0 7.5C0 5.51088 0.790176 3.60322 2.1967 2.1967C3.60322 0.790176 5.51088 0 7.5 0ZM7.5 1.25C6.67924 1.25 5.86651 1.41166 5.10823 1.72575C4.34994 2.03984 3.66095 2.50022 3.08058 3.08058C1.90848 4.25269 1.25 5.8424 1.25 7.5C1.25 9 1.78125 10.375 2.6625 11.4562L11.4562 2.6625C10.375 1.78125 9 1.25 7.5 1.25ZM7.5 13.75C9.1576 13.75 10.7473 13.0915 11.9194 11.9194C13.0915 10.7473 13.75 9.1576 13.75 7.5C13.75 6 13.2187 4.625 12.3375 3.54375L3.54375 12.3375C4.625 13.2187 6 13.75 7.5 13.75Z" fill="#ffffff"/>
</svg>
