<svg width="20" height="18" viewBox="0 0 20 18" fill="none" xmlns="http://www.w3.org/2000/svg">
<path d="M13.86 15L14.9 16C13.5 17.2 10.94 18 8 18C3.59 18 0 16.21 0 14V4C0 1.79 3.58 0 8 0C10.95 0 13.5 0.8 14.9 2L13.86 3L13.5 3.4C12.65 2.77 10.78 2 8 2C4.13 2 2 3.5 2 4C2 4.5 4.13 6 8 6C9.37 6 10.5 5.81 11.42 5.54L12.38 6.5H9.5V7.92C9 7.97 8.5 8 8 8C5.61 8 3.47 7.47 2 6.64V9.45C3.3 10.4 5.58 11 8 11C8.5 11 9 10.97 9.5 10.92V11.5H12.38L11.38 12.5L11.5 12.61C10.41 12.86 9.24 13 8 13C5.72 13 3.61 12.55 2 11.77V14C2 14.5 4.13 16 8 16C10.78 16 12.65 15.23 13.5 14.61L13.86 15ZM14.92 4.08L13.5 5.5L16 8H11V10H16L13.5 12.5L14.92 13.92L19.84 9L14.92 4.08Z" fill="#ffffff"/>
</svg>
