<?xml version="1.0" encoding="UTF-8" standalone="no"?>
<!-- Created with Inkscape (http://www.inkscape.org/) -->

<svg
   width="960.02759"
   height="1920.0001"
   viewBox="0 0 254.00729 508.00003"
   version="1.1"
   id="svg5"
   inkscape:version="1.2.2 (1:1.2.2+202212051551+b0a8486541)"
   sodipodi:docname="greenmark_4.svg"
   xml:space="preserve"
   xmlns:inkscape="http://www.inkscape.org/namespaces/inkscape"
   xmlns:sodipodi="http://sodipodi.sourceforge.net/DTD/sodipodi-0.dtd"
   xmlns:xlink="http://www.w3.org/1999/xlink"
   xmlns="http://www.w3.org/2000/svg"
   xmlns:svg="http://www.w3.org/2000/svg"><sodipodi:namedview
     id="namedview7"
     pagecolor="#ffffff"
     bordercolor="#000000"
     borderopacity="0.25"
     inkscape:showpageshadow="2"
     inkscape:pageopacity="0.0"
     inkscape:pagecheckerboard="0"
     inkscape:deskcolor="#d1d1d1"
     inkscape:document-units="px"
     showgrid="false"
     inkscape:zoom="0.16"
     inkscape:cx="34.375"
     inkscape:cy="978.125"
     inkscape:window-width="1920"
     inkscape:window-height="952"
     inkscape:window-x="0"
     inkscape:window-y="27"
     inkscape:window-maximized="1"
     inkscape:current-layer="layer1" /><defs
     id="defs2"><linearGradient
       inkscape:collect="always"
       id="linearGradient46318"><stop
         style="stop-color:#005620;stop-opacity:1;"
         offset="0"
         id="stop46314" /><stop
         style="stop-color:#00772c;stop-opacity:1;"
         offset="1"
         id="stop46316" /></linearGradient><linearGradient
       inkscape:collect="always"
       id="linearGradient45551"><stop
         style="stop-color:#009e3a;stop-opacity:1;"
         offset="0"
         id="stop45547" /><stop
         style="stop-color:#00802e;stop-opacity:1;"
         offset="1"
         id="stop45549" /></linearGradient><linearGradient
       inkscape:collect="always"
       id="linearGradient44370"><stop
         style="stop-color:#00551f;stop-opacity:1;"
         offset="0"
         id="stop44366" /><stop
         style="stop-color:#00762c;stop-opacity:1;"
         offset="1"
         id="stop44368" /></linearGradient><linearGradient
       inkscape:collect="always"
       id="linearGradient43396"><stop
         style="stop-color:#009f3b;stop-opacity:1;"
         offset="0"
         id="stop43392" /><stop
         style="stop-color:#00802e;stop-opacity:1;"
         offset="1"
         id="stop43394" /></linearGradient><linearGradient
       inkscape:collect="always"
       id="linearGradient43181"><stop
         style="stop-color:#00541f;stop-opacity:1;"
         offset="0"
         id="stop43177" /><stop
         style="stop-color:#00792d;stop-opacity:1;"
         offset="1"
         id="stop43179" /></linearGradient><linearGradient
       inkscape:collect="always"
       id="linearGradient42966"><stop
         style="stop-color:#00a03b;stop-opacity:1;"
         offset="0"
         id="stop42962" /><stop
         style="stop-color:#007f2e;stop-opacity:1;"
         offset="1"
         id="stop42964" /></linearGradient><linearGradient
       inkscape:collect="always"
       id="linearGradient35484"><stop
         style="stop-color:#00a23c;stop-opacity:1;"
         offset="0"
         id="stop35480" /><stop
         style="stop-color:#007e2e;stop-opacity:1;"
         offset="1"
         id="stop35482" /></linearGradient><linearGradient
       inkscape:collect="always"
       id="linearGradient34640"><stop
         style="stop-color:#00541f;stop-opacity:1;"
         offset="0"
         id="stop34636" /><stop
         style="stop-color:#007a2d;stop-opacity:1;"
         offset="1"
         id="stop34638" /></linearGradient><linearGradient
       inkscape:collect="always"
       id="linearGradient30948"><stop
         style="stop-color:#006666;stop-opacity:1;"
         offset="0"
         id="stop30944" /><stop
         style="stop-color:#009999;stop-opacity:1;"
         offset="1"
         id="stop30946" /></linearGradient><linearGradient
       inkscape:collect="always"
       id="linearGradient10203"><stop
         style="stop-color:#ffff79;stop-opacity:1;"
         offset="0"
         id="stop10199" /><stop
         style="stop-color:#ffff4b;stop-opacity:1;"
         offset="0.77900493"
         id="stop10207" /><stop
         style="stop-color:#ffff31;stop-opacity:1;"
         offset="1"
         id="stop10201" /></linearGradient><linearGradient
       inkscape:collect="always"
       id="linearGradient10187"><stop
         style="stop-color:#102316;stop-opacity:1;"
         offset="0"
         id="stop10183" /><stop
         style="stop-color:#282f28;stop-opacity:0.29693767;"
         offset="1"
         id="stop10185" /></linearGradient><rect
       x="-974.44879"
       y="47.954514"
       width="577.4021"
       height="385.33417"
       id="rect395" /><filter
       style="color-interpolation-filters:sRGB"
       inkscape:label="Greyscale"
       id="filter19554"
       x="0"
       y="0"
       width="1"
       height="1"><feColorMatrix
         values="0.21 0.72 0.072 0 0 0.21 0.72 0.072 0 0 0.21 0.72 0.072 0 0 0 0 0 1 0 "
         id="feColorMatrix19552" /></filter><filter
       style="color-interpolation-filters:sRGB"
       inkscape:label="Greyscale"
       id="filter19550"
       x="0"
       y="0"
       width="1"
       height="1"><feColorMatrix
         values="0.21 0.72 0.072 0 0 0.21 0.72 0.072 0 0 0.21 0.72 0.072 0 0 0 0 0 1 0 "
         id="feColorMatrix19548" /></filter><filter
       style="color-interpolation-filters:sRGB"
       inkscape:label="Greyscale"
       id="filter19546"
       x="0"
       y="0"
       width="1"
       height="1"><feColorMatrix
         values="0.21 0.72 0.072 0 0 0.21 0.72 0.072 0 0 0.21 0.72 0.072 0 0 0 0 0 1 0 "
         id="feColorMatrix19544" /></filter><filter
       style="color-interpolation-filters:sRGB"
       inkscape:label="Greyscale"
       id="filter19542"
       x="0"
       y="0"
       width="1"
       height="1"><feColorMatrix
         values="0.21 0.72 0.072 0 0 0.21 0.72 0.072 0 0 0.21 0.72 0.072 0 0 0 0 0 1 0 "
         id="feColorMatrix19540" /></filter><filter
       style="color-interpolation-filters:sRGB"
       inkscape:label="Greyscale"
       id="filter19538"
       x="0"
       y="0"
       width="1"
       height="1"><feColorMatrix
         values="0.21 0.72 0.072 0 0 0.21 0.72 0.072 0 0 0.21 0.72 0.072 0 0 0 0 0 1 0 "
         id="feColorMatrix19536" /></filter><filter
       style="color-interpolation-filters:sRGB"
       inkscape:label="Greyscale"
       id="filter19534"
       x="0"
       y="0"
       width="1"
       height="1"><feColorMatrix
         values="0.21 0.72 0.072 0 0 0.21 0.72 0.072 0 0 0.21 0.72 0.072 0 0 0 0 0 1 0 "
         id="feColorMatrix19532" /></filter><filter
       style="color-interpolation-filters:sRGB"
       inkscape:label="Greyscale"
       id="filter19530"
       x="0"
       y="0"
       width="1"
       height="1"><feColorMatrix
         values="0.21 0.72 0.072 0 0 0.21 0.72 0.072 0 0 0.21 0.72 0.072 0 0 0 0 0 1 0 "
         id="feColorMatrix19528" /></filter><filter
       style="color-interpolation-filters:sRGB"
       inkscape:label="Greyscale"
       id="filter19526"
       x="0"
       y="0"
       width="1"
       height="1"><feColorMatrix
         values="0.21 0.72 0.072 0 0 0.21 0.72 0.072 0 0 0.21 0.72 0.072 0 0 0 0 0 1 0 "
         id="feColorMatrix19524" /></filter><filter
       style="color-interpolation-filters:sRGB"
       inkscape:label="Greyscale"
       id="filter19522"
       x="0"
       y="0"
       width="1"
       height="1"><feColorMatrix
         values="0.21 0.72 0.072 0 0 0.21 0.72 0.072 0 0 0.21 0.72 0.072 0 0 0 0 0 1 0 "
         id="feColorMatrix19520" /></filter><filter
       style="color-interpolation-filters:sRGB"
       inkscape:label="Greyscale"
       id="filter19518"
       x="0"
       y="0"
       width="1"
       height="1"><feColorMatrix
         values="0.21 0.72 0.072 0 0 0.21 0.72 0.072 0 0 0.21 0.72 0.072 0 0 0 0 0 1 0 "
         id="feColorMatrix19516" /></filter><filter
       style="color-interpolation-filters:sRGB"
       inkscape:label="Greyscale"
       id="filter19514"
       x="0"
       y="0"
       width="1"
       height="1"><feColorMatrix
         values="0.21 0.72 0.072 0 0 0.21 0.72 0.072 0 0 0.21 0.72 0.072 0 0 0 0 0 1 0 "
         id="feColorMatrix19512" /></filter><filter
       style="color-interpolation-filters:sRGB"
       inkscape:label="Greyscale"
       id="filter19510"
       x="0"
       y="0"
       width="1"
       height="1"><feColorMatrix
         values="0.21 0.72 0.072 0 0 0.21 0.72 0.072 0 0 0.21 0.72 0.072 0 0 0 0 0 1 0 "
         id="feColorMatrix19508" /></filter><filter
       style="color-interpolation-filters:sRGB"
       inkscape:label="Greyscale"
       id="filter19506"
       x="0"
       y="0"
       width="1"
       height="1"><feColorMatrix
         values="0.21 0.72 0.072 0 0 0.21 0.72 0.072 0 0 0.21 0.72 0.072 0 0 0 0 0 1 0 "
         id="feColorMatrix19504" /></filter><filter
       style="color-interpolation-filters:sRGB"
       inkscape:label="Greyscale"
       id="filter19502"
       x="0"
       y="0"
       width="1"
       height="1"><feColorMatrix
         values="0.21 0.72 0.072 0 0 0.21 0.72 0.072 0 0 0.21 0.72 0.072 0 0 0 0 0 1 0 "
         id="feColorMatrix19500" /></filter><filter
       style="color-interpolation-filters:sRGB"
       inkscape:label="Greyscale"
       id="filter19498"
       x="0"
       y="0"
       width="1"
       height="1"><feColorMatrix
         values="0.21 0.72 0.072 0 0 0.21 0.72 0.072 0 0 0.21 0.72 0.072 0 0 0 0 0 1 0 "
         id="feColorMatrix19496" /></filter><filter
       style="color-interpolation-filters:sRGB"
       inkscape:label="Greyscale"
       id="filter19494"
       x="0"
       y="0"
       width="1"
       height="1"><feColorMatrix
         values="0.21 0.72 0.072 0 0 0.21 0.72 0.072 0 0 0.21 0.72 0.072 0 0 0 0 0 1 0 "
         id="feColorMatrix19492" /></filter><filter
       style="color-interpolation-filters:sRGB"
       inkscape:label="Greyscale"
       id="filter19490"
       x="0"
       y="0"
       width="1"
       height="1"><feColorMatrix
         values="0.21 0.72 0.072 0 0 0.21 0.72 0.072 0 0 0.21 0.72 0.072 0 0 0 0 0 1 0 "
         id="feColorMatrix19488" /></filter><filter
       style="color-interpolation-filters:sRGB"
       inkscape:label="Greyscale"
       id="filter19486"
       x="0"
       y="0"
       width="1"
       height="1"><feColorMatrix
         values="0.21 0.72 0.072 0 0 0.21 0.72 0.072 0 0 0.21 0.72 0.072 0 0 0 0 0 1 0 "
         id="feColorMatrix19484" /></filter><filter
       style="color-interpolation-filters:sRGB"
       inkscape:label="Greyscale"
       id="filter19482"
       x="0"
       y="0"
       width="1"
       height="1"><feColorMatrix
         values="0.21 0.72 0.072 0 0 0.21 0.72 0.072 0 0 0.21 0.72 0.072 0 0 0 0 0 1 0 "
         id="feColorMatrix19480" /></filter><filter
       style="color-interpolation-filters:sRGB"
       inkscape:label="Greyscale"
       id="filter19478"
       x="0"
       y="0"
       width="1"
       height="1"><feColorMatrix
         values="0.21 0.72 0.072 0 0 0.21 0.72 0.072 0 0 0.21 0.72 0.072 0 0 0 0 0 1 0 "
         id="feColorMatrix19476" /></filter><filter
       style="color-interpolation-filters:sRGB"
       inkscape:label="Greyscale"
       id="filter19474"
       x="0"
       y="0"
       width="1"
       height="1"><feColorMatrix
         values="0.21 0.72 0.072 0 0 0.21 0.72 0.072 0 0 0.21 0.72 0.072 0 0 0 0 0 1 0 "
         id="feColorMatrix19472" /></filter><filter
       style="color-interpolation-filters:sRGB"
       inkscape:label="Greyscale"
       id="filter19470"
       x="0"
       y="0"
       width="1"
       height="1"><feColorMatrix
         values="0.21 0.72 0.072 0 0 0.21 0.72 0.072 0 0 0.21 0.72 0.072 0 0 0 0 0 1 0 "
         id="feColorMatrix19468" /></filter><filter
       style="color-interpolation-filters:sRGB"
       inkscape:label="Greyscale"
       id="filter19466"
       x="0"
       y="0"
       width="1"
       height="1"><feColorMatrix
         values="0.21 0.72 0.072 0 0 0.21 0.72 0.072 0 0 0.21 0.72 0.072 0 0 0 0 0 1 0 "
         id="feColorMatrix19464" /></filter><filter
       style="color-interpolation-filters:sRGB"
       inkscape:label="Greyscale"
       id="filter19462"
       x="0"
       y="0"
       width="1"
       height="1"><feColorMatrix
         values="0.21 0.72 0.072 0 0 0.21 0.72 0.072 0 0 0.21 0.72 0.072 0 0 0 0 0 1 0 "
         id="feColorMatrix19460" /></filter><filter
       style="color-interpolation-filters:sRGB"
       inkscape:label="Greyscale"
       id="filter19458"
       x="0"
       y="0"
       width="1"
       height="1"><feColorMatrix
         values="0.21 0.72 0.072 0 0 0.21 0.72 0.072 0 0 0.21 0.72 0.072 0 0 0 0 0 1 0 "
         id="feColorMatrix19456" /></filter><filter
       style="color-interpolation-filters:sRGB"
       inkscape:label="Greyscale"
       id="filter19454"
       x="0"
       y="0"
       width="1"
       height="1"><feColorMatrix
         values="0.21 0.72 0.072 0 0 0.21 0.72 0.072 0 0 0.21 0.72 0.072 0 0 0 0 0 1 0 "
         id="feColorMatrix19452" /></filter><filter
       style="color-interpolation-filters:sRGB"
       inkscape:label="Greyscale"
       id="filter19450"
       x="0"
       y="0"
       width="1"
       height="1"><feColorMatrix
         values="0.21 0.72 0.072 0 0 0.21 0.72 0.072 0 0 0.21 0.72 0.072 0 0 0 0 0 1 0 "
         id="feColorMatrix19448" /></filter><filter
       style="color-interpolation-filters:sRGB"
       inkscape:label="Greyscale"
       id="filter19446"
       x="0"
       y="0"
       width="1"
       height="1"><feColorMatrix
         values="0.21 0.72 0.072 0 0 0.21 0.72 0.072 0 0 0.21 0.72 0.072 0 0 0 0 0 1 0 "
         id="feColorMatrix19444" /></filter><filter
       style="color-interpolation-filters:sRGB"
       inkscape:label="Greyscale"
       id="filter19442"
       x="0"
       y="0"
       width="1"
       height="1"><feColorMatrix
         values="0.21 0.72 0.072 0 0 0.21 0.72 0.072 0 0 0.21 0.72 0.072 0 0 0 0 0 1 0 "
         id="feColorMatrix19440" /></filter><filter
       style="color-interpolation-filters:sRGB"
       inkscape:label="Greyscale"
       id="filter19438"
       x="0"
       y="0"
       width="1"
       height="1"><feColorMatrix
         values="0.21 0.72 0.072 0 0 0.21 0.72 0.072 0 0 0.21 0.72 0.072 0 0 0 0 0 1 0 "
         id="feColorMatrix19436" /></filter><filter
       style="color-interpolation-filters:sRGB"
       inkscape:label="Greyscale"
       id="filter19434"
       x="0"
       y="0"
       width="1"
       height="1"><feColorMatrix
         values="0.21 0.72 0.072 0 0 0.21 0.72 0.072 0 0 0.21 0.72 0.072 0 0 0 0 0 1 0 "
         id="feColorMatrix19432" /></filter><filter
       style="color-interpolation-filters:sRGB"
       inkscape:label="Greyscale"
       id="filter19430"
       x="0"
       y="0"
       width="1"
       height="1"><feColorMatrix
         values="0.21 0.72 0.072 0 0 0.21 0.72 0.072 0 0 0.21 0.72 0.072 0 0 0 0 0 1 0 "
         id="feColorMatrix19428" /></filter><filter
       style="color-interpolation-filters:sRGB"
       inkscape:label="Greyscale"
       id="filter19426"
       x="0"
       y="0"
       width="1"
       height="1"><feColorMatrix
         values="0.21 0.72 0.072 0 0 0.21 0.72 0.072 0 0 0.21 0.72 0.072 0 0 0 0 0 1 0 "
         id="feColorMatrix19424" /></filter><filter
       style="color-interpolation-filters:sRGB"
       inkscape:label="Greyscale"
       id="filter19422"
       x="0"
       y="0"
       width="1"
       height="1"><feColorMatrix
         values="0.21 0.72 0.072 0 0 0.21 0.72 0.072 0 0 0.21 0.72 0.072 0 0 0 0 0 1 0 "
         id="feColorMatrix19420" /></filter><filter
       style="color-interpolation-filters:sRGB"
       inkscape:label="Greyscale"
       id="filter19418"
       x="0"
       y="0"
       width="1"
       height="1"><feColorMatrix
         values="0.21 0.72 0.072 0 0 0.21 0.72 0.072 0 0 0.21 0.72 0.072 0 0 0 0 0 1 0 "
         id="feColorMatrix19416" /></filter><filter
       style="color-interpolation-filters:sRGB"
       inkscape:label="Greyscale"
       id="filter19414"
       x="0"
       y="0"
       width="1"
       height="1"><feColorMatrix
         values="0.21 0.72 0.072 0 0 0.21 0.72 0.072 0 0 0.21 0.72 0.072 0 0 0 0 0 1 0 "
         id="feColorMatrix19412" /></filter><filter
       style="color-interpolation-filters:sRGB"
       inkscape:label="Greyscale"
       id="filter19410"
       x="0"
       y="0"
       width="1"
       height="1"><feColorMatrix
         values="0.21 0.72 0.072 0 0 0.21 0.72 0.072 0 0 0.21 0.72 0.072 0 0 0 0 0 1 0 "
         id="feColorMatrix19408" /></filter><filter
       style="color-interpolation-filters:sRGB"
       inkscape:label="Greyscale"
       id="filter19406"
       x="0"
       y="0"
       width="1"
       height="1"><feColorMatrix
         values="0.21 0.72 0.072 0 0 0.21 0.72 0.072 0 0 0.21 0.72 0.072 0 0 0 0 0 1 0 "
         id="feColorMatrix19404" /></filter><filter
       style="color-interpolation-filters:sRGB"
       inkscape:label="Greyscale"
       id="filter19402"
       x="0"
       y="0"
       width="1"
       height="1"><feColorMatrix
         values="0.21 0.72 0.072 0 0 0.21 0.72 0.072 0 0 0.21 0.72 0.072 0 0 0 0 0 1 0 "
         id="feColorMatrix19400" /></filter><filter
       style="color-interpolation-filters:sRGB"
       inkscape:label="Greyscale"
       id="filter19398"
       x="0"
       y="0"
       width="1"
       height="1"><feColorMatrix
         values="0.21 0.72 0.072 0 0 0.21 0.72 0.072 0 0 0.21 0.72 0.072 0 0 0 0 0 1 0 "
         id="feColorMatrix19396" /></filter><filter
       style="color-interpolation-filters:sRGB"
       inkscape:label="Greyscale"
       id="filter19394"
       x="0"
       y="0"
       width="1"
       height="1"><feColorMatrix
         values="0.21 0.72 0.072 0 0 0.21 0.72 0.072 0 0 0.21 0.72 0.072 0 0 0 0 0 1 0 "
         id="feColorMatrix19392" /></filter><filter
       style="color-interpolation-filters:sRGB"
       inkscape:label="Greyscale"
       id="filter19390"
       x="0"
       y="0"
       width="1"
       height="1"><feColorMatrix
         values="0.21 0.72 0.072 0 0 0.21 0.72 0.072 0 0 0.21 0.72 0.072 0 0 0 0 0 1 0 "
         id="feColorMatrix19388" /></filter><filter
       style="color-interpolation-filters:sRGB"
       inkscape:label="Greyscale"
       id="filter19386"
       x="0"
       y="0"
       width="1"
       height="1"><feColorMatrix
         values="0.21 0.72 0.072 0 0 0.21 0.72 0.072 0 0 0.21 0.72 0.072 0 0 0 0 0 1 0 "
         id="feColorMatrix19384" /></filter><filter
       style="color-interpolation-filters:sRGB"
       inkscape:label="Greyscale"
       id="filter19382"
       x="0"
       y="0"
       width="1"
       height="1"><feColorMatrix
         values="0.21 0.72 0.072 0 0 0.21 0.72 0.072 0 0 0.21 0.72 0.072 0 0 0 0 0 1 0 "
         id="feColorMatrix19380" /></filter><filter
       style="color-interpolation-filters:sRGB"
       inkscape:label="Greyscale"
       id="filter19378"
       x="0"
       y="0"
       width="1"
       height="1"><feColorMatrix
         values="0.21 0.72 0.072 0 0 0.21 0.72 0.072 0 0 0.21 0.72 0.072 0 0 0 0 0 1 0 "
         id="feColorMatrix19376" /></filter><filter
       style="color-interpolation-filters:sRGB"
       inkscape:label="Greyscale"
       id="filter19374"
       x="0"
       y="0"
       width="1"
       height="1"><feColorMatrix
         values="0.21 0.72 0.072 0 0 0.21 0.72 0.072 0 0 0.21 0.72 0.072 0 0 0 0 0 1 0 "
         id="feColorMatrix19372" /></filter><filter
       style="color-interpolation-filters:sRGB"
       inkscape:label="Greyscale"
       id="filter19370"
       x="0"
       y="0"
       width="1"
       height="1"><feColorMatrix
         values="0.21 0.72 0.072 0 0 0.21 0.72 0.072 0 0 0.21 0.72 0.072 0 0 0 0 0 1 0 "
         id="feColorMatrix19368" /></filter><filter
       style="color-interpolation-filters:sRGB"
       inkscape:label="Greyscale"
       id="filter19366"
       x="0"
       y="0"
       width="1"
       height="1"><feColorMatrix
         values="0.21 0.72 0.072 0 0 0.21 0.72 0.072 0 0 0.21 0.72 0.072 0 0 0 0 0 1 0 "
         id="feColorMatrix19364" /></filter><filter
       style="color-interpolation-filters:sRGB"
       inkscape:label="Greyscale"
       id="filter19362"
       x="0"
       y="0"
       width="1"
       height="1"><feColorMatrix
         values="0.21 0.72 0.072 0 0 0.21 0.72 0.072 0 0 0.21 0.72 0.072 0 0 0 0 0 1 0 "
         id="feColorMatrix19360" /></filter><filter
       style="color-interpolation-filters:sRGB"
       inkscape:label="Greyscale"
       id="filter19358"
       x="0"
       y="0"
       width="1"
       height="1"><feColorMatrix
         values="0.21 0.72 0.072 0 0 0.21 0.72 0.072 0 0 0.21 0.72 0.072 0 0 0 0 0 1 0 "
         id="feColorMatrix19356" /></filter><filter
       style="color-interpolation-filters:sRGB"
       inkscape:label="Greyscale"
       id="filter19354"
       x="0"
       y="0"
       width="1"
       height="1"><feColorMatrix
         values="0.21 0.72 0.072 0 0 0.21 0.72 0.072 0 0 0.21 0.72 0.072 0 0 0 0 0 1 0 "
         id="feColorMatrix19352" /></filter><filter
       style="color-interpolation-filters:sRGB"
       inkscape:label="Greyscale"
       id="filter19350"
       x="0"
       y="0"
       width="1"
       height="1"><feColorMatrix
         values="0.21 0.72 0.072 0 0 0.21 0.72 0.072 0 0 0.21 0.72 0.072 0 0 0 0 0 1 0 "
         id="feColorMatrix19348" /></filter><filter
       style="color-interpolation-filters:sRGB"
       inkscape:label="Greyscale"
       id="filter19346"
       x="0"
       y="0"
       width="1"
       height="1"><feColorMatrix
         values="0.21 0.72 0.072 0 0 0.21 0.72 0.072 0 0 0.21 0.72 0.072 0 0 0 0 0 1 0 "
         id="feColorMatrix19344" /></filter><filter
       style="color-interpolation-filters:sRGB"
       inkscape:label="Greyscale"
       id="filter19342"
       x="0"
       y="0"
       width="1"
       height="1"><feColorMatrix
         values="0.21 0.72 0.072 0 0 0.21 0.72 0.072 0 0 0.21 0.72 0.072 0 0 0 0 0 1 0 "
         id="feColorMatrix19340" /></filter><filter
       style="color-interpolation-filters:sRGB"
       inkscape:label="Greyscale"
       id="filter55158"
       x="0"
       y="0"
       width="1"
       height="1"><feColorMatrix
         values="0.21 0.72 0.072 0 0 0.21 0.72 0.072 0 0 0.21 0.72 0.072 0 0 0 0 0 1 0 "
         id="feColorMatrix55156" /></filter><linearGradient
       inkscape:collect="always"
       xlink:href="#linearGradient30948"
       id="linearGradient30950"
       x1="979.56293"
       y1="695.08533"
       x2="1311.8571"
       y2="496.86908"
       gradientUnits="userSpaceOnUse" /><linearGradient
       inkscape:collect="always"
       xlink:href="#linearGradient10203"
       id="linearGradient30962"
       x1="1018.1437"
       y1="641.50562"
       x2="1252.4042"
       y2="641.50562"
       gradientUnits="userSpaceOnUse" /><linearGradient
       inkscape:collect="always"
       xlink:href="#linearGradient10203"
       id="linearGradient30964"
       x1="998.40417"
       y1="585.40649"
       x2="1134.4392"
       y2="585.40649"
       gradientUnits="userSpaceOnUse" /><linearGradient
       inkscape:collect="always"
       xlink:href="#linearGradient10203"
       id="linearGradient30966"
       x1="1103.5413"
       y1="788.46582"
       x2="1252.4042"
       y2="788.46582"
       gradientUnits="userSpaceOnUse" /><linearGradient
       inkscape:collect="always"
       xlink:href="#linearGradient10203"
       id="linearGradient30968"
       x1="998.40411"
       y1="760.95441"
       x2="1089.155"
       y2="760.95441"
       gradientUnits="userSpaceOnUse" /><linearGradient
       inkscape:collect="always"
       xlink:href="#linearGradient10187"
       id="linearGradient30978"
       x1="1103.5413"
       y1="857.38464"
       x2="1252.4042"
       y2="857.38464"
       gradientUnits="userSpaceOnUse" /><linearGradient
       inkscape:collect="always"
       xlink:href="#linearGradient10187"
       id="linearGradient30980"
       x1="1018.1437"
       y1="693.17114"
       x2="1252.4042"
       y2="693.17114"
       gradientUnits="userSpaceOnUse" /><linearGradient
       inkscape:collect="always"
       xlink:href="#linearGradient10187"
       id="linearGradient30982"
       x1="998.40417"
       y1="598.43774"
       x2="1169.9611"
       y2="598.43774"
       gradientUnits="userSpaceOnUse" /><linearGradient
       inkscape:collect="always"
       xlink:href="#linearGradient10187"
       id="linearGradient30984"
       x1="998.40417"
       y1="794.69702"
       x2="1089.1552"
       y2="794.69702"
       gradientUnits="userSpaceOnUse" /><linearGradient
       inkscape:collect="always"
       xlink:href="#linearGradient10187"
       id="linearGradient32619"
       x1="890.63385"
       y1="929.49323"
       x2="1170.801"
       y2="929.49323"
       gradientUnits="userSpaceOnUse"
       gradientTransform="translate(-3.2e-6)" /><linearGradient
       inkscape:collect="always"
       xlink:href="#linearGradient10187"
       id="linearGradient32621"
       x1="1103.5413"
       y1="987.07306"
       x2="1383.7085"
       y2="987.07306"
       gradientUnits="userSpaceOnUse" /><linearGradient
       inkscape:collect="always"
       xlink:href="#linearGradient10203"
       id="linearGradient32687"
       x1="1103.5413"
       y1="973.87372"
       x2="1252.4042"
       y2="973.87372"
       gradientUnits="userSpaceOnUse" /><linearGradient
       inkscape:collect="always"
       xlink:href="#linearGradient10203"
       id="linearGradient32751"
       x1="998.40417"
       y1="916.48932"
       x2="1170.801"
       y2="916.48932"
       gradientUnits="userSpaceOnUse" /><linearGradient
       inkscape:collect="always"
       xlink:href="#linearGradient34640"
       id="linearGradient34642"
       x1="1412.2527"
       y1="-3.3677492"
       x2="1443.9713"
       y2="-47.863983"
       gradientUnits="userSpaceOnUse" /><linearGradient
       inkscape:collect="always"
       xlink:href="#linearGradient35484"
       id="linearGradient35486"
       x1="1376.6166"
       y1="-46.401642"
       x2="1395.6394"
       y2="-25.478542"
       gradientUnits="userSpaceOnUse" /><linearGradient
       inkscape:collect="always"
       xlink:href="#linearGradient42966"
       id="linearGradient42968"
       x1="1009.6423"
       y1="884.85748"
       x2="1028.665"
       y2="905.78058"
       gradientUnits="userSpaceOnUse" /><linearGradient
       inkscape:collect="always"
       xlink:href="#linearGradient43181"
       id="linearGradient43183"
       x1="1046.141"
       y1="927.59302"
       x2="1077.3772"
       y2="883.36902"
       gradientUnits="userSpaceOnUse" /><linearGradient
       inkscape:collect="always"
       xlink:href="#linearGradient43396"
       id="linearGradient43398"
       x1="1218.7062"
       y1="943.64624"
       x2="1237.729"
       y2="964.56934"
       gradientUnits="userSpaceOnUse" /><linearGradient
       inkscape:collect="always"
       xlink:href="#linearGradient44370"
       id="linearGradient44372"
       x1="1252.4042"
       y1="987.35046"
       x2="1268.1929"
       y2="963.6601"
       gradientUnits="userSpaceOnUse" /><linearGradient
       inkscape:collect="always"
       xlink:href="#linearGradient45551"
       id="linearGradient45553"
       x1="1213.3494"
       y1="757.84363"
       x2="1232.3722"
       y2="778.76672"
       gradientUnits="userSpaceOnUse" /><linearGradient
       inkscape:collect="always"
       xlink:href="#linearGradient46318"
       id="linearGradient46320"
       x1="1252.4042"
       y1="799.69507"
       x2="1273.4556"
       y2="770.99365"
       gradientUnits="userSpaceOnUse" /></defs><g
     inkscape:label="Layer 1"
     inkscape:groupmode="layer"
     id="layer1"
     transform="translate(16.5618,42.27337)"><text
       xml:space="preserve"
       transform="scale(0.26458333)"
       id="text393"
       style="font-weight:bold;font-size:74.6667px;font-family:sans-serif;-inkscape-font-specification:'sans-serif Bold';white-space:pre;shape-inside:url(#rect395);display:inline;fill:#ffffff;stroke-width:0.2" /><g
       id="g55299"
       transform="matrix(0.37968791,0,0,0.37968791,418.30757,268.29945)" /><g
       id="g48185"
       transform="translate(-1014.9587,-582.14244)"><rect
         style="fill:#ffffff;stroke-width:0.16098"
         id="rect30626"
         width="254"
         height="508"
         x="998.40417"
         y="539.86908" /><path
         style="fill:url(#linearGradient30950);fill-opacity:1;stroke:none;stroke-width:2.64583;stroke-dasharray:none;stroke-opacity:1"
         d="M 998.40417,1047.8691 H 1252.4042 V 539.86907 H 998.40419 Z"
         id="path30632"
         sodipodi:nodetypes="ccccc" /><path
         style="fill:#fe01e5;fill-opacity:1;stroke:none;stroke-width:2.64583;stroke-dasharray:none;stroke-opacity:1"
         d="M 1139.5611,722.16671 V 748.8082"
         id="path30634" /><path
         style="fill:#fe01e5;fill-opacity:1;stroke:none;stroke-width:2.64583;stroke-dasharray:none;stroke-opacity:1"
         d="m 1224.9587,865.82168 v 26.64149"
         id="path30636" /><path
         style="fill:#fe01e5;fill-opacity:1;stroke:none;stroke-width:2.64583;stroke-dasharray:none;stroke-opacity:1"
         d="m 1089.155,739.82056 v 26.64149"
         id="path30638" /><path
         style="fill:#fe01e5;fill-opacity:1;stroke:none;stroke-width:2.64583;stroke-dasharray:none;stroke-opacity:1"
         d="m 1013.7784,630.36498 v 26.64149"
         id="path30640" /><path
         style="fill:url(#linearGradient30968);fill-opacity:1;stroke:none;stroke-width:2.64583;stroke-dasharray:none;stroke-opacity:1"
         d="m 998.40419,714.0248 c 36.56641,21.86295 65.18051,27.02554 90.75081,25.79576 l -80.1956,60.14693 -10.5553,7.9165 z"
         id="path30650"
         sodipodi:nodetypes="ccccc" /><path
         style="fill:url(#linearGradient30980);fill-opacity:1;stroke:none;stroke-width:2.64583;stroke-dasharray:none;stroke-opacity:1"
         d="m 1018.1437,678.65117 234.2605,-41.11706 v 26.64149 l -112.8431,84.6326 z"
         id="path30652" /><path
         style="fill:url(#linearGradient30962);fill-opacity:1;stroke:none;stroke-width:2.64583;stroke-dasharray:none;stroke-opacity:1"
         d="m 1018.1437,678.65117 158.7497,-119.0627 c 31.1532,18.18902 57.4848,33.31572 75.5108,37.9817 v 39.96394 l -112.8431,84.6326 c -1.9508,1.20657 -42.8078,9.95457 -121.4174,-43.51554 z"
         id="path30654"
         sodipodi:nodetypes="cccccc" /><path
         style="fill:url(#linearGradient30982);fill-opacity:1;stroke:none;stroke-width:2.64583;stroke-dasharray:none;stroke-opacity:1"
         d="m 998.40419,630.94388 136.03511,-91.07481 h 35.5218 l -156.1827,117.1374 -15.37421,-8.8835 z"
         id="path30656" /><path
         style="fill:url(#linearGradient30964);fill-opacity:1;stroke:none;stroke-width:2.64583;stroke-dasharray:none;stroke-opacity:1"
         d="m 998.40419,539.86907 h 136.03501 l -120.6608,90.49591 -15.37421,0.5789 z"
         id="path30658" /><path
         style="fill:url(#linearGradient30978);fill-opacity:1;stroke:none;stroke-width:2.64583;stroke-dasharray:none;stroke-opacity:1"
         d="m 1103.5413,822.30614 148.8629,22.93138 v 26.64147 l -27.4455,20.58419 z"
         id="path30660" /><path
         style="fill:url(#linearGradient30966);fill-opacity:1;stroke:none;stroke-width:2.64583;stroke-dasharray:none;stroke-opacity:1"
         d="m 1103.5413,822.30614 148.8629,-111.64755 v 134.57893 l -27.4455,20.58415 c -27.4463,2.35669 -51.8362,-4.71762 -74.6943,-16.51813 z"
         id="path30662"
         sodipodi:nodetypes="cccccc" /><path
         style="fill:url(#linearGradient30984);fill-opacity:1;stroke:none;stroke-width:2.64583;stroke-dasharray:none;stroke-opacity:1"
         d="m 998.40417,807.88393 10e-5,26.64143 90.75083,-68.06336 -20.0641,-11.59335 z"
         id="path30664"
         sodipodi:nodetypes="ccccc" /><path
         style="opacity:1;fill:none;fill-opacity:1;stroke:none;stroke-width:2.64583;stroke-dasharray:none;stroke-opacity:1"
         d="m 998.40419,855.4043 c 82.89241,38.15172 161.24631,91.64065 253.99991,96.46786"
         id="path30720"
         sodipodi:nodetypes="cc" /><g
         id="g30996"
         transform="translate(-249.48885,661.44478)"><path
           style="fill:#00f65c;fill-opacity:1;stroke:none;stroke-width:2.64583;stroke-dasharray:none;stroke-opacity:1"
           d="m 1358.6908,-35.5795 11.6863,-11.40173 22.3828,25.137183 32.0383,-40.437453 12.8753,14.85037 -33.7691,46.95097264 -19.1416,-2.87198104 z"
           id="path30988" /><path
           style="fill:url(#linearGradient35486);fill-opacity:1;stroke:none;stroke-width:2.64583;stroke-dasharray:none;stroke-opacity:1"
           d="m 1370.3771,-46.98123 12.479,1.15918 15.6629,16.709013 -5.7591,7.26899 z"
           id="path30990" /><path
           style="fill:#55ff94;fill-opacity:1;stroke:none;stroke-width:2.64583;stroke-dasharray:none;stroke-opacity:1"
           d="m 1424.7982,-62.2815 13.852,1.705981 11.619,12.278679 -12.5957,0.86571 z"
           id="path30992" /><path
           style="fill:url(#linearGradient34642);fill-opacity:1;stroke:none;stroke-width:2.64583;stroke-dasharray:none;stroke-opacity:1"
           d="m 1437.6735,-47.43113 12.5957,-0.86571 -31.6768,42.7362726 -14.688,5.08041004 z"
           id="path30994" /></g><path
         style="opacity:1;fill:#55ff94;fill-opacity:1;stroke:none;stroke-width:2.64583;stroke-dasharray:none;stroke-opacity:1"
         d="m 998.40419,726.15202 v 12.5681 l 11.16661,-0.76747 z"
         id="path32280" /><path
         style="opacity:1;fill:#005b22;fill-opacity:1;stroke:none;stroke-width:2.64583;stroke-dasharray:none;stroke-opacity:1"
         d="m 998.40411,738.72012 v 14.29787 l 11.16669,-15.06534 z"
         id="path32282" /><path
         id="path32595"
         style="fill:url(#linearGradient32619);fill-opacity:1;stroke-width:2.64867"
         d="m 998.40419,873.11803 50.97931,-38.23463 121.4175,70.157 -158.7497,119.0627 -13.6544,-7.8898 0.007,-18.11806 z"
         sodipodi:nodetypes="ccccccc" /><path
         id="path32599"
         style="fill:url(#linearGradient32621);fill-opacity:1;stroke-width:2.64867"
         d="m 1103.5413,1011.5259 148.8629,-111.64759 v 147.99079 h -17.8822 -62.3713 l -5.7689,-0.033 v 0 z"
         sodipodi:nodetypes="cccccccc" /><path
         style="opacity:1;fill:url(#linearGradient32687);fill-opacity:1;stroke:none;stroke-width:2.64583;stroke-dasharray:none;stroke-opacity:1"
         d="m 1103.5413,1011.5259 c 19.8028,11.2073 23.4666,18.9405 68.6095,36.3432 h 62.3712 l 17.8822,-13.4118 V 899.87831 Z"
         id="path32623"
         sodipodi:nodetypes="cccccc" /><path
         style="opacity:1;fill:url(#linearGradient32751);fill-opacity:1;stroke:none;stroke-width:2.64583;stroke-dasharray:none;stroke-opacity:1"
         d="m 998.40419,873.11803 50.97931,-38.23462 c 36.1008,19.14597 68.8045,46.21737 121.4175,43.51549 l -158.7497,119.06282 -13.64714,0.63352 z"
         id="path32689"
         sodipodi:nodetypes="cccccc" /><path
         style="opacity:1;fill:#00f65c;fill-opacity:1;stroke:none;stroke-width:2.64583;stroke-dasharray:none;stroke-opacity:1"
         d="m 1207.1099,757.26403 22.3828,25.13719 22.9115,-28.91796 v 33.92157 l -11.767,16.36027 -19.1416,-2.872 -26.072,-32.22736 z"
         id="path41903" /><path
         style="opacity:1;fill:url(#linearGradient45553);fill-opacity:1;stroke:none;stroke-width:2.64583;stroke-dasharray:none;stroke-opacity:1"
         d="m 1207.1099,757.26403 12.479,1.15916 15.6629,16.70902 -5.7591,7.26901 z"
         id="path41905" /><path
         style="opacity:1;fill:url(#linearGradient46320);fill-opacity:1;stroke:none;stroke-width:2.64583;stroke-dasharray:none;stroke-opacity:1"
         d="m 1252.4042,787.40486 v 12.29019 l -11.767,4.07005 z"
         id="path41907" /><path
         style="opacity:1;fill:#00f65c;fill-opacity:1;stroke:none;stroke-width:2.64583;stroke-dasharray:none;stroke-opacity:1"
         d="m 1212.4667,943.06664 22.3828,25.13716 17.5547,-22.15689 v 34.60829 l -6.4103,8.91252 -19.1416,-2.872 -26.0719,-32.22736 z"
         id="path41909" /><path
         style="opacity:1;fill:url(#linearGradient43398);fill-opacity:1;stroke:none;stroke-width:2.64583;stroke-dasharray:none;stroke-opacity:1"
         d="m 1212.4667,943.06664 12.4789,1.15917 15.663,16.70902 -5.7591,7.26897 z"
         id="path41911" /><path
         style="opacity:1;fill:url(#linearGradient44372);fill-opacity:1;stroke:none;stroke-width:2.64583;stroke-dasharray:none;stroke-opacity:1"
         d="m 1252.4042,980.6552 v 6.69528 l -6.4103,2.21724 z"
         id="path41913" /><path
         style="opacity:1;fill:#00f65c;fill-opacity:1;stroke:none;stroke-width:2.64583;stroke-dasharray:none;stroke-opacity:1"
         d="m 998.40419,889.15474 4.99861,-4.87682 22.3827,25.13719 32.0383,-40.43746 12.8754,14.85037 -33.7692,46.95097 -19.1416,-2.872 -19.38421,-23.96069 z"
         id="path41915" /><path
         style="opacity:1;fill:url(#linearGradient42968);fill-opacity:1;stroke:none;stroke-width:2.64583;stroke-dasharray:none;stroke-opacity:1"
         d="m 1003.4028,884.27792 12.4789,1.15916 15.663,16.70902 -5.7592,7.26901 z"
         id="path41917" /><path
         style="opacity:1;fill:#55ff94;fill-opacity:1;stroke:none;stroke-width:2.64583;stroke-dasharray:none;stroke-opacity:1"
         d="m 1057.8238,868.97765 13.852,1.70598 11.6191,12.27867 -12.5957,0.86572 z"
         id="path41919" /><path
         style="opacity:1;fill:url(#linearGradient43183);fill-opacity:1;stroke:none;stroke-width:2.64583;stroke-dasharray:none;stroke-opacity:1"
         d="m 1083.2949,882.9623 -31.6769,42.73627 -14.688,5.08042 33.7692,-46.95097 z"
         id="path41921" /><path
         style="opacity:1;fill:#00f65c;fill-opacity:1;stroke:none;stroke-width:2.64583;stroke-dasharray:none;stroke-opacity:1"
         d="m 1005.7486,539.86908 h 38.7782 l -10.3351,14.36944 -19.1416,-2.87197 z"
         id="path41923" /><path
         style="opacity:1;fill:#666666;fill-opacity:1;stroke:none;stroke-width:2.64583;stroke-dasharray:none;stroke-opacity:1"
         d="m 1044.5268,539.86908 h 11.2381 l -6.8852,9.28905 -14.688,5.08039 z"
         id="path41925" /><g
         id="g32593"
         transform="translate(472.97009,-96.2324)"><path
           style="fill:#001d18;fill-opacity:1;stroke:none;stroke-width:3.06603;stroke-dasharray:none;stroke-opacity:1"
           d="m 525.43414,951.63668 c 84.87101,38.79145 164.14441,92.81562 253.99991,96.46782 v 95.997 H 525.43414 Z"
           id="path30666"
           sodipodi:nodetypes="ccccc" /><g
           id="g30718"
           transform="translate(-911.73639,487.17249)"><g
             id="g30668"
             transform="translate(-6.6425172,-25.58708)" /><g
             id="g30716"><g
               id="g30706"
               transform="translate(-8.7260908,-25.58708)"><g
                 id="g30704"><g
                   id="g30702"><g
                     id="g30700"><g
                       id="g30698"><g
                         id="g30696"><g
                           id="g30694"><g
                             id="g30692"
                             transform="matrix(1.3980384,0,0,1.3980384,1828.1995,556.7556)"
                             style="fill:#ffffff"><g
                               aria-label="Greenmark"
                               id="g30688"
                               style="font-weight:bold;font-size:19.7556px;-inkscape-font-specification:'sans-serif Bold';stroke-width:0.0529167"><path
                                 d="m -241.30053,45.389459 q -1.38907,0.675241 -2.88424,1.012861 -1.49518,0.33762 -3.08682,0.33762 -3.59806,0 -5.70095,-2.006428 -2.1029,-2.016075 -2.1029,-5.4598 0,-3.48231 2.14148,-5.479092 2.14148,-1.996782 5.86494,-1.996782 1.4373,0 2.7492,0.270096 1.32154,0.270096 2.48874,0.800642 v 2.980703 q -1.20579,-0.684886 -2.40193,-1.022506 -1.18649,-0.33762 -2.38263,-0.33762 -2.21865,0 -3.42443,1.244371 -1.19614,1.234725 -1.19614,3.540188 0,2.286171 1.15755,3.530542 1.15756,1.244371 3.28939,1.244371 0.57877,0 1.07074,-0.06752 0.5016,-0.07717 0.8971,-0.231511 V 40.95217 h -2.26688 v -2.488742 h 5.78778 z"
                                 id="path30670" /><path
                                 d="m -230.15907,38.598472 q -0.45338,-0.212218 -0.90675,-0.308681 -0.44373,-0.10611 -0.89711,-0.10611 -1.33118,0 -2.05466,0.85852 -0.71382,0.848874 -0.71382,2.440511 v 4.977485 h -3.45337 V 35.656354 h 3.45337 v 1.774917 q 0.66559,-1.061092 1.52411,-1.543406 0.86817,-0.491961 2.07395,-0.491961 0.17364,0 0.37621,0.01929 0.20257,0.0096 0.58842,0.05788 z"
                                 id="path30672" /><path
                                 d="m -217.65748,41.029337 v 0.983921 h -8.07394 q 0.1254,1.215433 0.87781,1.823149 0.75241,0.607716 2.10289,0.607716 1.09003,0 2.22829,-0.318328 1.14791,-0.327973 2.3537,-0.983921 v 2.662376 q -1.22508,0.463022 -2.45016,0.694533 -1.22508,0.241157 -2.45016,0.241157 -2.93247,0 -4.56269,-1.485529 -1.62058,-1.495174 -1.62058,-4.186489 0,-2.643083 1.59164,-4.157551 1.60128,-1.514467 4.39871,-1.514467 2.54662,0 4.07073,1.53376 1.53376,1.53376 1.53376,4.099673 z m -3.54983,-1.147909 q 0,-0.983921 -0.57878,-1.581991 -0.56913,-0.607716 -1.49518,-0.607716 -1.00321,0 -1.63022,0.569131 -0.62701,0.559485 -0.78135,1.620576 z"
                                 id="path30674" /><path
                                 d="m -204.25878,41.029337 v 0.983921 h -8.07395 q 0.12541,1.215433 0.87782,1.823149 0.75241,0.607716 2.10289,0.607716 1.09003,0 2.22829,-0.318328 1.14791,-0.327973 2.35369,-0.983921 v 2.662376 q -1.22507,0.463022 -2.45015,0.694533 -1.22508,0.241157 -2.45016,0.241157 -2.93247,0 -4.5627,-1.485529 -1.62057,-1.495174 -1.62057,-4.186489 0,-2.643083 1.59164,-4.157551 1.60128,-1.514467 4.3987,-1.514467 2.54662,0 4.07074,1.53376 1.53376,1.53376 1.53376,4.099673 z m -3.54984,-1.147909 q 0,-0.983921 -0.57877,-1.581991 -0.56914,-0.607716 -1.49518,-0.607716 -1.00321,0 -1.63022,0.569131 -0.62701,0.559485 -0.78135,1.620576 z"
                                 id="path30676" /><path
                                 d="m -190.78292,39.881428 v 6.578769 h -3.47266 v -1.070738 -3.964624 q 0,-1.398712 -0.0675,-1.929258 -0.0579,-0.530546 -0.21222,-0.78135 -0.20257,-0.33762 -0.54983,-0.520899 -0.34727,-0.192926 -0.791,-0.192926 -1.08038,0 -1.69775,0.839227 -0.61736,0.829581 -0.61736,2.305463 v 5.315105 h -3.45337 V 35.656354 h 3.45337 v 1.581991 q 0.78135,-0.945336 1.65916,-1.389066 0.87781,-0.453375 1.93891,-0.453375 1.87138,0 2.83601,1.147908 0.97427,1.147909 0.97427,3.337616 z"
                                 id="path30678" /><path
                                 d="m -177.5675,37.450563 q 0.65595,-1.003214 1.55305,-1.524113 0.90675,-0.530546 1.98714,-0.530546 1.86173,0 2.83601,1.147908 0.97427,1.147909 0.97427,3.337616 v 6.578769 h -3.47266 v -5.633432 q 0.01,-0.125402 0.01,-0.26045 0.01,-0.135048 0.01,-0.385852 0,-1.147908 -0.33762,-1.659161 -0.33762,-0.5209 -1.09003,-0.5209 -0.98392,0 -1.52411,0.810288 -0.53055,0.810289 -0.54984,2.344048 v 5.305459 h -3.47267 v -5.633432 q 0,-1.79421 -0.30868,-2.305463 -0.30868,-0.5209 -1.09967,-0.5209 -0.99357,0 -1.53376,0.819935 -0.5402,0.810288 -0.5402,2.324755 v 5.315105 h -3.47266 V 35.656354 h 3.47266 v 1.581991 q 0.63666,-0.916397 1.45659,-1.379419 0.82958,-0.463022 1.82315,-0.463022 1.11897,0 1.97749,0.540192 0.85852,0.540192 1.30225,1.514467 z"
                                 id="path30680" /><path
                                 d="m -162.15273,41.598468 q -1.08038,0 -1.63022,0.366559 -0.54019,0.366559 -0.54019,1.080384 0,0.655948 0.43408,1.032153 0.44373,0.366559 1.22508,0.366559 0.97427,0 1.63987,-0.694533 0.66559,-0.704179 0.66559,-1.755624 v -0.395498 z m 5.27652,-1.302249 v 6.163978 h -3.48231 v -1.601284 q -0.69453,0.983922 -1.5627,1.437298 -0.86816,0.443729 -2.11253,0.443729 -1.67846,0 -2.7299,-0.974275 -1.0418,-0.983922 -1.0418,-2.546621 0,-1.900319 1.30225,-2.787777 1.31189,-0.887459 4.10931,-0.887459 h 2.03537 v -0.270096 q 0,-0.819934 -0.6463,-1.19614 -0.6463,-0.385851 -2.01607,-0.385851 -1.10933,0 -2.06431,0.221864 -0.95498,0.221865 -1.77492,0.665594 v -2.633437 q 1.10933,-0.270096 2.2283,-0.405144 1.11896,-0.144694 2.23793,-0.144694 2.92283,0 4.21543,1.157555 1.30225,1.147908 1.30225,3.74276 z"
                                 id="path30682" /><path
                                 d="m -145.63828,38.598472 q -0.45338,-0.212218 -0.90676,-0.308681 -0.44372,-0.10611 -0.8971,-0.10611 -1.33119,0 -2.05466,0.85852 -0.71383,0.848874 -0.71383,2.440511 v 4.977485 H -153.664 V 35.656354 h 3.45337 v 1.774917 q 0.6656,-1.061092 1.52412,-1.543406 0.86816,-0.491961 2.07395,-0.491961 0.17363,0 0.37621,0.01929 0.20257,0.0096 0.58842,0.05788 z"
                                 id="path30684" /><path
                                 d="m -143.92124,31.450572 h 3.45337 v 8.170407 l 3.97427,-3.964625 h 4.01285 l -5.27652,4.958192 5.69131,5.845651 h -4.18648 l -4.21543,-4.504817 v 4.504817 h -3.45337 z"
                                 id="path30686" /></g><path
                               style="fill:#54e431;fill-opacity:1;stroke-width:0.0364633"
                               d="m -129.08525,37.637619 4.58385,9.102321 14.34662,-13.704523 -12.82044,8.4368 -3.00458,-5.267725 z"
                               id="path30690" /></g></g></g></g></g></g></g></g><g
               id="g30714"
               transform="translate(-6.6425485,15.274932)"><g
                 id="g30712"><text
                   xml:space="preserve"
                   style="font-weight:bold;font-size:11.2889px;font-family:sans-serif;-inkscape-font-specification:'sans-serif Bold';fill:#001d18;fill-opacity:1;stroke:none;stroke-width:2.64583;stroke-dasharray:none;stroke-opacity:1"
                   x="1506.9326"
                   y="600.87054"
                   id="text30710"><tspan
                     sodipodi:role="line"
                     id="tspan30708"
                     style="font-style:normal;font-variant:normal;font-weight:normal;font-stretch:normal;font-size:11.2889px;font-family:sans-serif;-inkscape-font-specification:sans-serif;fill:#ffffff;stroke-width:2.64583"
                     x="1506.9326"
                     y="600.87054">Task management app</tspan></text></g></g></g></g></g></g></g></svg>
