<?xml version="1.0" encoding="UTF-8" standalone="no"?>
<!-- Created with Inkscape (http://www.inkscape.org/) -->

<svg
   width="1275.0002"
   height="1700.0071"
   viewBox="0 0 337.34381 449.79354"
   version="1.1"
   id="svg5"
   inkscape:version="1.2.2 (1:1.2.2+202212051551+b0a8486541)"
   sodipodi:docname="greenmark_illustration_3x4.svg"
   inkscape:export-filename="greenmark_illustration_3x4.png"
   inkscape:export-xdpi="96"
   inkscape:export-ydpi="96"
   xmlns:inkscape="http://www.inkscape.org/namespaces/inkscape"
   xmlns:sodipodi="http://sodipodi.sourceforge.net/DTD/sodipodi-0.dtd"
   xmlns:xlink="http://www.w3.org/1999/xlink"
   xmlns="http://www.w3.org/2000/svg"
   xmlns:svg="http://www.w3.org/2000/svg">
  <sodipodi:namedview
     id="namedview7"
     pagecolor="#ffffff"
     bordercolor="#000000"
     borderopacity="0.25"
     inkscape:showpageshadow="2"
     inkscape:pageopacity="0.0"
     inkscape:pagecheckerboard="0"
     inkscape:deskcolor="#d1d1d1"
     inkscape:document-units="px"
     showgrid="false"
     inkscape:zoom="0.12378089"
     inkscape:cx="-513.00327"
     inkscape:cy="1244.1339"
     inkscape:window-width="1920"
     inkscape:window-height="979"
     inkscape:window-x="1920"
     inkscape:window-y="0"
     inkscape:window-maximized="1"
     inkscape:current-layer="layer1" />
  <defs
     id="defs2">
    <linearGradient
       inkscape:collect="always"
       id="linearGradient2281">
      <stop
         style="stop-color:#1c1c1c;stop-opacity:0;"
         offset="0"
         id="stop2279" />
      <stop
         style="stop-color:#0d0d0d;stop-opacity:1;"
         offset="1"
         id="stop2277" />
    </linearGradient>
    <linearGradient
       inkscape:collect="always"
       id="linearGradient31849">
      <stop
         style="stop-color:#559692;stop-opacity:1;"
         offset="0"
         id="stop31845" />
      <stop
         style="stop-color:#274947;stop-opacity:1;"
         offset="1"
         id="stop31847" />
    </linearGradient>
    <linearGradient
       inkscape:collect="always"
       id="linearGradient39228">
      <stop
         style="stop-color:#4e8886;stop-opacity:1;"
         offset="0"
         id="stop39224" />
      <stop
         style="stop-color:#284847;stop-opacity:0;"
         offset="1"
         id="stop39226" />
    </linearGradient>
    <linearGradient
       inkscape:collect="always"
       id="linearGradient54298">
      <stop
         style="stop-color:#c94e0b;stop-opacity:1;"
         offset="0"
         id="stop54294" />
      <stop
         style="stop-color:#ff6e1d;stop-opacity:1;"
         offset="1"
         id="stop54296" />
    </linearGradient>
    <linearGradient
       inkscape:collect="always"
       id="linearGradient49825">
      <stop
         style="stop-color:#009c94;stop-opacity:1;"
         offset="0"
         id="stop49823" />
      <stop
         style="stop-color:#005c57;stop-opacity:1;"
         offset="1"
         id="stop49821" />
    </linearGradient>
    <linearGradient
       inkscape:collect="always"
       id="linearGradient56622">
      <stop
         style="stop-color:#956913;stop-opacity:1;"
         offset="0"
         id="stop56618" />
      <stop
         style="stop-color:#805a0f;stop-opacity:1;"
         offset="1"
         id="stop56620" />
    </linearGradient>
    <linearGradient
       inkscape:collect="always"
       id="linearGradient41135">
      <stop
         style="stop-color:#ff880a;stop-opacity:0;"
         offset="0"
         id="stop41133" />
      <stop
         style="stop-color:#ff890a;stop-opacity:1;"
         offset="1"
         id="stop41131" />
    </linearGradient>
    <linearGradient
       inkscape:collect="always"
       id="linearGradient57161">
      <stop
         style="stop-color:#292929;stop-opacity:1;"
         offset="0"
         id="stop57157" />
      <stop
         style="stop-color:#4c462e;stop-opacity:1;"
         offset="1"
         id="stop57159" />
    </linearGradient>
    <linearGradient
       inkscape:collect="always"
       id="linearGradient56936">
      <stop
         style="stop-color:#5c3d0a;stop-opacity:1;"
         offset="0"
         id="stop56932" />
      <stop
         style="stop-color:#452e07;stop-opacity:1;"
         offset="1"
         id="stop56934" />
    </linearGradient>
    <linearGradient
       inkscape:collect="always"
       id="linearGradient56976">
      <stop
         style="stop-color:#5c3d0a;stop-opacity:1;"
         offset="0"
         id="stop56972" />
      <stop
         style="stop-color:#4f3408;stop-opacity:1;"
         offset="1"
         id="stop56974" />
    </linearGradient>
    <linearGradient
       inkscape:collect="always"
       id="linearGradient56944">
      <stop
         style="stop-color:#5c3d0a;stop-opacity:1;"
         offset="0"
         id="stop56940" />
      <stop
         style="stop-color:#4a3008;stop-opacity:1;"
         offset="1"
         id="stop56942" />
    </linearGradient>
    <linearGradient
       inkscape:collect="always"
       id="linearGradient16455">
      <stop
         style="stop-color:#afe1e0;stop-opacity:1;"
         offset="0"
         id="stop16451" />
      <stop
         style="stop-color:#78bab8;stop-opacity:1;"
         offset="1"
         id="stop16453" />
    </linearGradient>
    <linearGradient
       inkscape:collect="always"
       id="linearGradient49750">
      <stop
         style="stop-color:#009c94;stop-opacity:1;"
         offset="0"
         id="stop49746" />
      <stop
         style="stop-color:#00645f;stop-opacity:1;"
         offset="1"
         id="stop49748" />
    </linearGradient>
    <linearGradient
       inkscape:collect="always"
       xlink:href="#linearGradient31849"
       id="linearGradient66789"
       gradientUnits="userSpaceOnUse"
       gradientTransform="translate(-567.72605,-207.09711)"
       x1="-219.19978"
       y1="474.18369"
       x2="38.912418"
       y2="297" />
    <radialGradient
       inkscape:collect="always"
       xlink:href="#linearGradient39228"
       id="radialGradient66791"
       gradientUnits="userSpaceOnUse"
       gradientTransform="matrix(0.20623059,0.78148502,-1.1539295,0.30451711,-475.01839,564.01095)"
       cx="-660.22888"
       cy="42.507885"
       fx="-660.22888"
       fy="42.507885"
       r="123.558" />
    <linearGradient
       inkscape:collect="always"
       xlink:href="#linearGradient54298"
       id="linearGradient66793"
       gradientUnits="userSpaceOnUse"
       x1="-782.56689"
       y1="-121.5836"
       x2="-765.51819"
       y2="-110.06602" />
    <linearGradient
       inkscape:collect="always"
       xlink:href="#linearGradient49825"
       id="linearGradient66795"
       gradientUnits="userSpaceOnUse"
       x1="-820.92041"
       y1="-115.18901"
       x2="-791.33838"
       y2="-115.18901" />
    <linearGradient
       inkscape:collect="always"
       xlink:href="#linearGradient56622"
       id="linearGradient66797"
       gradientUnits="userSpaceOnUse"
       x1="-566.18762"
       y1="-518.29669"
       x2="-525.23193"
       y2="-517.7486" />
    <linearGradient
       inkscape:collect="always"
       xlink:href="#linearGradient41135"
       id="linearGradient66799"
       gradientUnits="userSpaceOnUse"
       x1="-733.16144"
       y1="-84.010864"
       x2="-584.06226"
       y2="16.445436" />
    <linearGradient
       inkscape:collect="always"
       xlink:href="#linearGradient57161"
       id="linearGradient66801"
       gradientUnits="userSpaceOnUse"
       x1="-736.44897"
       y1="64.538261"
       x2="-758.14642"
       y2="83.805733" />
    <linearGradient
       inkscape:collect="always"
       xlink:href="#linearGradient57161"
       id="linearGradient66803"
       gradientUnits="userSpaceOnUse"
       x1="-617.26251"
       y1="79.258568"
       x2="-602.44928"
       y2="98.680077" />
    <linearGradient
       inkscape:collect="always"
       xlink:href="#linearGradient57161"
       id="linearGradient66805"
       gradientUnits="userSpaceOnUse"
       x1="-612.30835"
       y1="70.344856"
       x2="-608.33881"
       y2="77.095665" />
    <linearGradient
       inkscape:collect="always"
       xlink:href="#linearGradient57161"
       id="linearGradient66807"
       gradientUnits="userSpaceOnUse"
       x1="-593.06921"
       y1="88.204758"
       x2="-584.06226"
       y2="100.06042" />
    <linearGradient
       inkscape:collect="always"
       xlink:href="#linearGradient56936"
       id="linearGradient66809"
       gradientUnits="userSpaceOnUse"
       x1="-507.79657"
       y1="223.18828"
       x2="-486.86716"
       y2="244.07861" />
    <linearGradient
       inkscape:collect="always"
       xlink:href="#linearGradient56976"
       id="linearGradient66811"
       gradientUnits="userSpaceOnUse"
       x1="-505.78052"
       y1="264.77579"
       x2="-500.58578"
       y2="275.67188" />
    <linearGradient
       inkscape:collect="always"
       xlink:href="#linearGradient56976"
       id="linearGradient66813"
       gradientUnits="userSpaceOnUse"
       x1="-484.32181"
       y1="252.5562"
       x2="-483.37872"
       y2="258.1026" />
    <linearGradient
       inkscape:collect="always"
       xlink:href="#linearGradient56944"
       id="linearGradient66815"
       gradientUnits="userSpaceOnUse"
       x1="-484.99225"
       y1="146.15315"
       x2="-469.66254"
       y2="148.66029" />
    <linearGradient
       inkscape:collect="always"
       xlink:href="#linearGradient56976"
       id="linearGradient66817"
       gradientUnits="userSpaceOnUse"
       x1="-498.19794"
       y1="121.15726"
       x2="-488.09088"
       y2="124.37431" />
    <linearGradient
       inkscape:collect="always"
       xlink:href="#linearGradient56976"
       id="linearGradient66819"
       gradientUnits="userSpaceOnUse"
       x1="-494.42371"
       y1="136.52672"
       x2="-488.81897"
       y2="139.35765" />
    <linearGradient
       inkscape:collect="always"
       xlink:href="#linearGradient16455"
       id="linearGradient66821"
       gradientUnits="userSpaceOnUse"
       gradientTransform="translate(-565.61198,-207.09711)"
       x1="-253"
       y1="77.72155"
       x2="-221.17387"
       y2="67.146103" />
    <linearGradient
       inkscape:collect="always"
       xlink:href="#linearGradient49750"
       id="linearGradient66823"
       gradientUnits="userSpaceOnUse"
       gradientTransform="translate(-565.61198,-207.09711)"
       x1="-270.87906"
       y1="57.941719"
       x2="-262.50879"
       y2="52.368126" />
    <linearGradient
       inkscape:collect="always"
       xlink:href="#linearGradient2281"
       id="linearGradient66883"
       gradientUnits="userSpaceOnUse"
       gradientTransform="matrix(1.275,0,0,0.84999899,-347.65757,-342.95976)"
       x1="-861.26703"
       y1="269.24155"
       x2="-596.68378"
       y2="269.24155" />
  </defs>
  <g
     inkscape:label="Layer 1"
     inkscape:groupmode="layer"
     id="layer1"
     transform="translate(466.9829,76.39677)">
    <g
       id="g68099"
       transform="translate(533.4782,-288.02158)">
      <g
         id="g67975">
        <g
           id="g67852"
           transform="translate(445.3119,550.62536)">
          <g
             id="g67829">
            <path
               id="path66829"
               style="mix-blend-mode:hard-light;fill:#1a1a1a;fill-opacity:1;stroke-width:6.227"
               d="m -1346.8588,-339.00055 a 488.8441,488.8441 0 0 0 -98.764,141.36487 v 44.93457 a 488.8441,488.8441 0 0 1 150.2372,-186.29944 z" />
            <rect
               style="mix-blend-mode:hard-light;fill:url(#linearGradient66883);fill-opacity:1;stroke-width:21.5261"
               id="rect66875"
               width="337.34369"
               height="449.79169"
               x="-1445.7729"
               y="-339.00055" />
            <path
               id="path66827"
               style="mix-blend-mode:hard-light;fill:#0d0d0d;fill-opacity:1;stroke-width:6.227"
               d="m -1386.5567,-339.00055 a 488.8441,488.8441 0 0 0 -59.2163,96.92512 v 44.93266 a 488.8441,488.8441 0 0 1 98.9142,-141.85778 z" />
            <path
               id="path66831"
               style="mix-blend-mode:hard-light;fill:#0d0d0d;fill-opacity:1;stroke-width:6.227"
               d="m -1295.7552,-339.00055 a 488.8441,488.8441 0 0 0 -150.0178,185.80601 v 44.93253 a 488.8441,488.8441 0 0 1 221.0556,-230.73854 z" />
            <path
               id="path66833"
               style="mix-blend-mode:hard-light;fill:#1a1a1a;fill-opacity:1;stroke-width:6.227"
               d="m -1225.1766,-339.00055 a 488.8441,488.8441 0 0 0 -220.5964,230.24575 v 44.934566 a 488.8441,488.8441 0 0 1 337.3437,-272.663336 v -2.51698 z" />
            <path
               id="path66835"
               style="mix-blend-mode:hard-light;fill:#0d0d0d;fill-opacity:1;stroke-width:6.227"
               d="m -1108.4293,-336.59692 a 488.8441,488.8441 0 0 0 -337.3437,272.283136 v 44.93329 a 488.8441,488.8441 0 0 1 337.3437,-272.663336 z" />
            <path
               id="path66837"
               style="mix-blend-mode:hard-light;fill:#1a1a1a;fill-opacity:1;stroke-width:6.227"
               d="m -1108.4293,-292.15718 a 488.8441,488.8441 0 0 0 -337.3437,272.283266 v 44.93457 a 488.8441,488.8441 0 0 1 337.3437,-272.663336 z" />
            <path
               id="path66839"
               style="mix-blend-mode:hard-light;fill:#0d0d0d;fill-opacity:1;stroke-width:6.227"
               d="M -1108.4293,-247.71603 A 488.8441,488.8441 0 0 0 -1445.773,24.567106 v 44.93265 a 488.8441,488.8441 0 0 1 337.3437,-272.662696 z" />
            <path
               id="path66841"
               style="mix-blend-mode:hard-light;fill:#1a1a1a;fill-opacity:1;stroke-width:6.227"
               d="m -1108.4293,-203.27629 c -148.7447,33.21165 -273.4889,133.897531 -337.3437,272.283136 v 41.786124 h 1.4624 c 64.1948,-136.910401 188.1884,-236.47471 335.8813,-269.51489 z"
               sodipodi:nodetypes="cccccc" />
            <path
               id="path66843"
               style="mix-blend-mode:hard-light;fill:#0d0d0d;fill-opacity:1;stroke-width:6.227"
               d="m -1108.4294,-158.83529 c -147.7167,33.00446 -271.8133,132.573181 -336.0466,269.62644 h 23.4414 c 68.8159,-115.0016214 181.8285,-196.707298 312.6052,-226.00688 z"
               sodipodi:nodetypes="ccccc" />
            <path
               id="path66845"
               style="mix-blend-mode:hard-light;fill:#1a1a1a;fill-opacity:1;stroke-width:6.227"
               d="m -1108.4294,-115.3289 a 488.8441,488.8441 0 0 0 -312.8388,226.12005 h 30.8586 a 488.8441,488.8441 0 0 1 281.9802,-180.632904 z" />
            <path
               id="path66847"
               style="mix-blend-mode:hard-light;fill:#1a1a1a;fill-opacity:1;stroke-width:6.227"
               d="m -1108.4294,-25.514744 a 488.8441,488.8441 0 0 0 -243.8244,136.305894 h 49.7691 a 488.8441,488.8441 0 0 1 194.0553,-91.752544 z" />
            <path
               id="path66849"
               style="mix-blend-mode:hard-light;fill:#0d0d0d;fill-opacity:1;stroke-width:6.227"
               d="m -1108.4294,18.925946 a 488.8441,488.8441 0 0 0 -194.3276,91.865204 h 68.2495 a 488.8441,488.8441 0 0 1 126.0781,-47.311334 z" />
            <path
               id="path66851"
               style="mix-blend-mode:hard-light;fill:#1a1a1a;fill-opacity:1;stroke-width:6.227"
               d="m -1108.4294,63.366126 a 488.8441,488.8441 0 0 0 -126.4,47.425024 h 112.7879 a 488.8441,488.8441 0 0 1 13.6121,-3.36724 z" />
            <path
               id="path66853"
               style="mix-blend-mode:hard-light;fill:#0d0d0d;fill-opacity:1;stroke-width:6.227"
               d="m -1108.4294,107.42391 a 488.8441,488.8441 0 0 0 -13.6767,3.36724 h 13.6767 z" />
            <path
               id="path66865"
               style="mix-blend-mode:hard-light;fill:#0d0d0d;fill-opacity:1;stroke-width:6.227"
               d="m -1108.4294,-69.954414 a 488.8441,488.8441 0 0 0 -282.2442,180.745564 h 38.6746 a 488.8441,488.8441 0 0 1 243.5696,-136.192214 z" />
            <path
               id="path66867"
               style="mix-blend-mode:hard-light;fill:#1a1a1a;fill-opacity:1;stroke-width:6.227"
               d="m -1417.7208,-339.00055 a 488.8441,488.8441 0 0 0 -28.0522,52.48538 v 44.93253 a 488.8441,488.8441 0 0 1 59.5747,-97.41791 z" />
            <path
               id="path66869"
               style="mix-blend-mode:hard-light;fill:#0d0d0d;fill-opacity:1;stroke-width:6.227"
               d="m -1441.947,-339.00055 a 488.8441,488.8441 0 0 0 -3.826,8.04563 v 44.93253 a 488.8441,488.8441 0 0 1 28.5213,-52.97816 z" />
            <path
               id="path66871"
               style="mix-blend-mode:hard-light;fill:#262626;fill-opacity:1;stroke-width:6.227"
               d="m -1445.773,-339.00055 v 8.53778 a 488.8441,488.8441 0 0 1 3.9611,-8.53778 z" />
          </g>
          <rect
             style="mix-blend-mode:darken;fill:#007573;fill-opacity:1;stroke-width:2.4969"
             id="rect66825"
             width="337.34375"
             height="449.79169"
             x="-1445.7729"
             y="-339.00055" />
        </g>
        <g
           id="g66787"
           transform="translate(-898.96768,274.5104)">
          <g
             id="g66669"
             transform="translate(682.96039,208.19056)">
            <g
               id="g66627"
               transform="translate(-2186.7081,-491.38377)">
              <g
                 id="g66625">
                <g
                   id="g66623">
                  <g
                     id="g66621">
                    <g
                       id="g66619">
                      <g
                         id="g66617">
                        <g
                           id="g66615">
                          <g
                             id="g66613"
                             transform="matrix(1.3980384,0,0,1.3980384,1828.1995,556.7556)"
                             style="fill:#ffffff">
                            <g
                               aria-label="Greenmark"
                               id="g66609"
                               style="font-weight:bold;font-size:19.7556px;-inkscape-font-specification:'sans-serif Bold';stroke-width:0.0529167">
                              <path
                                 d="m -241.30053,45.389459 q -1.38907,0.675241 -2.88424,1.012861 -1.49518,0.33762 -3.08682,0.33762 -3.59806,0 -5.70095,-2.006428 -2.1029,-2.016075 -2.1029,-5.4598 0,-3.48231 2.14148,-5.479092 2.14148,-1.996782 5.86494,-1.996782 1.4373,0 2.7492,0.270096 1.32154,0.270096 2.48874,0.800642 v 2.980703 q -1.20579,-0.684886 -2.40193,-1.022506 -1.18649,-0.33762 -2.38263,-0.33762 -2.21865,0 -3.42443,1.244371 -1.19614,1.234725 -1.19614,3.540188 0,2.286171 1.15755,3.530542 1.15756,1.244371 3.28939,1.244371 0.57877,0 1.07074,-0.06752 0.5016,-0.07717 0.8971,-0.231511 V 40.95217 h -2.26688 v -2.488742 h 5.78778 z"
                                 id="path66591" />
                              <path
                                 d="m -230.15907,38.598472 q -0.45338,-0.212218 -0.90675,-0.308681 -0.44373,-0.10611 -0.89711,-0.10611 -1.33118,0 -2.05466,0.85852 -0.71382,0.848874 -0.71382,2.440511 v 4.977485 h -3.45337 V 35.656354 h 3.45337 v 1.774917 q 0.66559,-1.061092 1.52411,-1.543406 0.86817,-0.491961 2.07395,-0.491961 0.17364,0 0.37621,0.01929 0.20257,0.0096 0.58842,0.05788 z"
                                 id="path66593" />
                              <path
                                 d="m -217.65748,41.029337 v 0.983921 h -8.07394 q 0.1254,1.215433 0.87781,1.823149 0.75241,0.607716 2.10289,0.607716 1.09003,0 2.22829,-0.318328 1.14791,-0.327973 2.3537,-0.983921 v 2.662376 q -1.22508,0.463022 -2.45016,0.694533 -1.22508,0.241157 -2.45016,0.241157 -2.93247,0 -4.56269,-1.485529 -1.62058,-1.495174 -1.62058,-4.186489 0,-2.643083 1.59164,-4.157551 1.60128,-1.514467 4.39871,-1.514467 2.54662,0 4.07073,1.53376 1.53376,1.53376 1.53376,4.099673 z m -3.54983,-1.147909 q 0,-0.983921 -0.57878,-1.581991 -0.56913,-0.607716 -1.49518,-0.607716 -1.00321,0 -1.63022,0.569131 -0.62701,0.559485 -0.78135,1.620576 z"
                                 id="path66595" />
                              <path
                                 d="m -204.25878,41.029337 v 0.983921 h -8.07395 q 0.12541,1.215433 0.87782,1.823149 0.75241,0.607716 2.10289,0.607716 1.09003,0 2.22829,-0.318328 1.14791,-0.327973 2.35369,-0.983921 v 2.662376 q -1.22507,0.463022 -2.45015,0.694533 -1.22508,0.241157 -2.45016,0.241157 -2.93247,0 -4.5627,-1.485529 -1.62057,-1.495174 -1.62057,-4.186489 0,-2.643083 1.59164,-4.157551 1.60128,-1.514467 4.3987,-1.514467 2.54662,0 4.07074,1.53376 1.53376,1.53376 1.53376,4.099673 z m -3.54984,-1.147909 q 0,-0.983921 -0.57877,-1.581991 -0.56914,-0.607716 -1.49518,-0.607716 -1.00321,0 -1.63022,0.569131 -0.62701,0.559485 -0.78135,1.620576 z"
                                 id="path66597" />
                              <path
                                 d="m -190.78292,39.881428 v 6.578769 h -3.47266 v -1.070738 -3.964624 q 0,-1.398712 -0.0675,-1.929258 -0.0579,-0.530546 -0.21222,-0.78135 -0.20257,-0.33762 -0.54983,-0.520899 -0.34727,-0.192926 -0.791,-0.192926 -1.08038,0 -1.69775,0.839227 -0.61736,0.829581 -0.61736,2.305463 v 5.315105 h -3.45337 V 35.656354 h 3.45337 v 1.581991 q 0.78135,-0.945336 1.65916,-1.389066 0.87781,-0.453375 1.93891,-0.453375 1.87138,0 2.83601,1.147908 0.97427,1.147909 0.97427,3.337616 z"
                                 id="path66599" />
                              <path
                                 d="m -177.5675,37.450563 q 0.65595,-1.003214 1.55305,-1.524113 0.90675,-0.530546 1.98714,-0.530546 1.86173,0 2.83601,1.147908 0.97427,1.147909 0.97427,3.337616 v 6.578769 h -3.47266 v -5.633432 q 0.01,-0.125402 0.01,-0.26045 0.01,-0.135048 0.01,-0.385852 0,-1.147908 -0.33762,-1.659161 -0.33762,-0.5209 -1.09003,-0.5209 -0.98392,0 -1.52411,0.810288 -0.53055,0.810289 -0.54984,2.344048 v 5.305459 h -3.47267 v -5.633432 q 0,-1.79421 -0.30868,-2.305463 -0.30868,-0.5209 -1.09967,-0.5209 -0.99357,0 -1.53376,0.819935 -0.5402,0.810288 -0.5402,2.324755 v 5.315105 h -3.47266 V 35.656354 h 3.47266 v 1.581991 q 0.63666,-0.916397 1.45659,-1.379419 0.82958,-0.463022 1.82315,-0.463022 1.11897,0 1.97749,0.540192 0.85852,0.540192 1.30225,1.514467 z"
                                 id="path66601" />
                              <path
                                 d="m -162.15273,41.598468 q -1.08038,0 -1.63022,0.366559 -0.54019,0.366559 -0.54019,1.080384 0,0.655948 0.43408,1.032153 0.44373,0.366559 1.22508,0.366559 0.97427,0 1.63987,-0.694533 0.66559,-0.704179 0.66559,-1.755624 v -0.395498 z m 5.27652,-1.302249 v 6.163978 h -3.48231 v -1.601284 q -0.69453,0.983922 -1.5627,1.437298 -0.86816,0.443729 -2.11253,0.443729 -1.67846,0 -2.7299,-0.974275 -1.0418,-0.983922 -1.0418,-2.546621 0,-1.900319 1.30225,-2.787777 1.31189,-0.887459 4.10931,-0.887459 h 2.03537 v -0.270096 q 0,-0.819934 -0.6463,-1.19614 -0.6463,-0.385851 -2.01607,-0.385851 -1.10933,0 -2.06431,0.221864 -0.95498,0.221865 -1.77492,0.665594 v -2.633437 q 1.10933,-0.270096 2.2283,-0.405144 1.11896,-0.144694 2.23793,-0.144694 2.92283,0 4.21543,1.157555 1.30225,1.147908 1.30225,3.74276 z"
                                 id="path66603" />
                              <path
                                 d="m -145.63828,38.598472 q -0.45338,-0.212218 -0.90676,-0.308681 -0.44372,-0.10611 -0.8971,-0.10611 -1.33119,0 -2.05466,0.85852 -0.71383,0.848874 -0.71383,2.440511 v 4.977485 H -153.664 V 35.656354 h 3.45337 v 1.774917 q 0.6656,-1.061092 1.52412,-1.543406 0.86816,-0.491961 2.07395,-0.491961 0.17363,0 0.37621,0.01929 0.20257,0.0096 0.58842,0.05788 z"
                                 id="path66605" />
                              <path
                                 d="m -143.92124,31.450572 h 3.45337 v 8.170407 l 3.97427,-3.964625 h 4.01285 l -5.27652,4.958192 5.69131,5.845651 h -4.18648 l -4.21543,-4.504817 v 4.504817 h -3.45337 z"
                                 id="path66607" />
                            </g>
                            <path
                               style="fill:#54e431;fill-opacity:1;stroke-width:0.0364633"
                               d="m -129.08525,37.637619 4.58385,9.102321 14.34662,-13.704523 -12.82044,8.4368 -3.00458,-5.267725 z"
                               id="path66611" />
                          </g>
                        </g>
                      </g>
                    </g>
                  </g>
                </g>
              </g>
            </g>
            <g
               id="g66667"
               transform="translate(-2184.6245,-450.52176)">
              <g
                 id="g66665">
                <g
                   aria-label="Task management app"
                   id="g66663"
                   style="font-weight:bold;font-size:11.2889px;-inkscape-font-specification:'sans-serif Bold';fill:#001d18;stroke-width:2.64583">
                  <path
                     d="m 1506.8995,592.64089 h 6.9619 v 0.93707 h -2.9214 v 7.29258 h -1.119 v -7.29258 h -2.9215 z"
                     style="font-weight:normal;-inkscape-font-specification:sans-serif;fill:#ffffff"
                     id="path66629" />
                  <path
                     d="m 1515.8292,597.7672 q -1.2292,0 -1.7032,0.28112 -0.4741,0.28112 -0.4741,0.95911 0,0.5402 0.3528,0.8599 0.3583,0.31419 0.9702,0.31419 0.8433,0 1.3504,-0.59531 0.5127,-0.60082 0.5127,-1.59301 v -0.226 z m 2.023,-0.41892 v 3.52226 h -1.0142 v -0.93706 q -0.3473,0.56224 -0.8654,0.83233 -0.5182,0.26459 -1.2678,0.26459 -0.9481,0 -1.5104,-0.52917 -0.5567,-0.53468 -0.5567,-1.42765 0,-1.0418 0.6945,-1.57096 0.7001,-0.52917 2.0836,-0.52917 h 1.4222 v -0.0992 q 0,-0.70004 -0.4631,-1.08038 -0.4575,-0.38585 -1.2898,-0.38585 -0.5292,0 -1.0308,0.12678 -0.5016,0.12677 -0.9646,0.38033 v -0.93706 q 0.5567,-0.21498 1.0804,-0.31971 0.5236,-0.11024 1.0197,-0.11024 1.3395,0 2.0009,0.69453 0.6615,0.69453 0.6615,2.10565 z"
                     style="font-weight:normal;-inkscape-font-specification:sans-serif;fill:#ffffff"
                     id="path66631" />
                  <path
                     d="m 1523.877,594.87883 v 0.95911 q -0.43,-0.22048 -0.893,-0.33073 -0.463,-0.11024 -0.9591,-0.11024 -0.7552,0 -1.1355,0.23151 -0.3748,0.23151 -0.3748,0.69453 0,0.35278 0.2701,0.55673 0.2701,0.19844 1.0859,0.38034 l 0.3472,0.0772 q 1.0804,0.23151 1.5324,0.65595 0.4575,0.41892 0.4575,1.17409 0,0.85989 -0.6835,1.3615 -0.678,0.50161 -1.8686,0.50161 -0.4961,0 -1.0363,-0.0992 -0.5347,-0.0937 -1.13,-0.28663 v -1.04731 q 0.5623,0.29214 1.108,0.44097 0.5457,0.14331 1.0803,0.14331 0.7166,0 1.1025,-0.24253 0.3858,-0.24805 0.3858,-0.69453 0,-0.41341 -0.2811,-0.6339 -0.2756,-0.22049 -1.2182,-0.42444 l -0.3528,-0.0827 q -0.9425,-0.19844 -1.3615,-0.60634 -0.4189,-0.41341 -0.4189,-1.12999 0,-0.87092 0.6174,-1.34497 0.6173,-0.47404 1.7528,-0.47404 0.5623,0 1.0584,0.0827 0.4961,0.0827 0.915,0.24805 z"
                     style="font-weight:normal;-inkscape-font-specification:sans-serif;fill:#ffffff"
                     id="path66633" />
                  <path
                     d="m 1525.7842,592.29363 h 1.0197 v 5.06567 l 3.0262,-2.66237 h 1.2954 l -3.2742,2.88837 3.412,3.28524 h -1.3229 l -3.1365,-3.01515 v 3.01515 h -1.0197 z"
                     style="font-weight:normal;-inkscape-font-specification:sans-serif;fill:#ffffff"
                     id="path66635" />
                  <path
                     d="m 1540.7552,595.88204 q 0.3804,-0.68351 0.9095,-1.00872 0.5292,-0.32522 1.2458,-0.32522 0.9646,0 1.4883,0.67799 0.5236,0.67249 0.5236,1.91824 v 3.72621 h -1.0197 v -3.69314 q 0,-0.88746 -0.3142,-1.31741 -0.3142,-0.42995 -0.9591,-0.42995 -0.7883,0 -1.2458,0.52366 -0.4575,0.52365 -0.4575,1.42765 v 3.48919 h -1.0198 v -3.69314 q 0,-0.89297 -0.3141,-1.31741 -0.3142,-0.42995 -0.9702,-0.42995 -0.7772,0 -1.2347,0.52917 -0.4575,0.52366 -0.4575,1.42214 v 3.48919 h -1.0198 v -6.17361 h 1.0198 v 0.95911 q 0.3472,-0.56775 0.8323,-0.83785 0.4851,-0.27009 1.1521,-0.27009 0.6724,0 1.141,0.34175 0.474,0.34176 0.7,0.99219 z"
                     style="font-weight:normal;-inkscape-font-specification:sans-serif;fill:#ffffff"
                     id="path66637" />
                  <path
                     d="m 1549.7511,597.7672 q -1.2292,0 -1.7033,0.28112 -0.474,0.28112 -0.474,0.95911 0,0.5402 0.3527,0.8599 0.3583,0.31419 0.9702,0.31419 0.8433,0 1.3505,-0.59531 0.5126,-0.60082 0.5126,-1.59301 v -0.226 z m 2.0229,-0.41892 v 3.52226 h -1.0142 v -0.93706 q -0.3473,0.56224 -0.8654,0.83233 -0.5182,0.26459 -1.2678,0.26459 -0.9481,0 -1.5103,-0.52917 -0.5568,-0.53468 -0.5568,-1.42765 0,-1.0418 0.6946,-1.57096 0.7,-0.52917 2.0836,-0.52917 h 1.4221 v -0.0992 q 0,-0.70004 -0.463,-1.08038 -0.4575,-0.38585 -1.2899,-0.38585 -0.5291,0 -1.0308,0.12678 -0.5016,0.12677 -0.9646,0.38033 v -0.93706 q 0.5567,-0.21498 1.0804,-0.31971 0.5237,-0.11024 1.0198,-0.11024 1.3394,0 2.0009,0.69453 0.6614,0.69453 0.6614,2.10565 z"
                     style="font-weight:normal;-inkscape-font-specification:sans-serif;fill:#ffffff"
                     id="path66639" />
                  <path
                     d="m 1558.995,597.14433 v 3.72621 h -1.0143 v -3.69314 q 0,-0.87643 -0.3417,-1.3119 -0.3418,-0.43546 -1.0253,-0.43546 -0.8213,0 -1.2954,0.52366 -0.474,0.52365 -0.474,1.42765 v 3.48919 h -1.0198 v -6.17361 h 1.0198 v 0.95911 q 0.3638,-0.55673 0.8544,-0.83233 0.4961,-0.27561 1.141,-0.27561 1.0638,0 1.6095,0.66146 0.5458,0.65594 0.5458,1.93477 z"
                     style="font-weight:normal;-inkscape-font-specification:sans-serif;fill:#ffffff"
                     id="path66641" />
                  <path
                     d="m 1563.8236,597.7672 q -1.2292,0 -1.7033,0.28112 -0.474,0.28112 -0.474,0.95911 0,0.5402 0.3528,0.8599 0.3583,0.31419 0.9701,0.31419 0.8434,0 1.3505,-0.59531 0.5126,-0.60082 0.5126,-1.59301 v -0.226 z m 2.023,-0.41892 v 3.52226 h -1.0143 v -0.93706 q -0.3472,0.56224 -0.8654,0.83233 -0.5181,0.26459 -1.2678,0.26459 -0.9481,0 -1.5103,-0.52917 -0.5567,-0.53468 -0.5567,-1.42765 0,-1.0418 0.6945,-1.57096 0.7,-0.52917 2.0836,-0.52917 h 1.4221 v -0.0992 q 0,-0.70004 -0.463,-1.08038 -0.4575,-0.38585 -1.2898,-0.38585 -0.5292,0 -1.0308,0.12678 -0.5016,0.12677 -0.9646,0.38033 v -0.93706 q 0.5567,-0.21498 1.0803,-0.31971 0.5237,-0.11024 1.0198,-0.11024 1.3395,0 2.0009,0.69453 0.6615,0.69453 0.6615,2.10565 z"
                     style="font-weight:normal;-inkscape-font-specification:sans-serif;fill:#ffffff"
                     id="path66643" />
                  <path
                     d="m 1571.9981,597.71208 q 0,-1.10243 -0.4575,-1.70877 -0.452,-0.60634 -1.2733,-0.60634 -0.8158,0 -1.2733,0.60634 -0.452,0.60634 -0.452,1.70877 0,1.09692 0.452,1.70325 0.4575,0.60634 1.2733,0.60634 0.8213,0 1.2733,-0.60634 0.4575,-0.60633 0.4575,-1.70325 z m 1.0143,2.39227 q 0,1.57648 -0.7001,2.34267 -0.7,0.7717 -2.1442,0.7717 -0.5347,0 -1.0087,-0.0827 -0.4741,-0.0772 -0.9206,-0.24253 v -0.98668 q 0.4465,0.24254 0.882,0.35829 0.4354,0.11576 0.8874,0.11576 0.9977,0 1.4938,-0.52366 0.4961,-0.51814 0.4961,-1.57096 v -0.50161 q -0.3142,0.5457 -0.8047,0.8158 -0.4906,0.27009 -1.1741,0.27009 -1.1355,0 -1.8301,-0.8654 -0.6945,-0.86541 -0.6945,-2.29306 0,-1.43316 0.6945,-2.29857 0.6946,-0.86541 1.8301,-0.86541 0.6835,0 1.1741,0.27009 0.4905,0.2701 0.8047,0.8158 v -0.93706 h 1.0143 z"
                     style="font-weight:normal;-inkscape-font-specification:sans-serif;fill:#ffffff"
                     id="path66645" />
                  <path
                     d="m 1580.3821,597.53018 v 0.49609 h -4.6633 q 0.066,1.04731 0.6284,1.59853 0.5678,0.5457 1.5765,0.5457 0.5843,0 1.13,-0.14332 0.5512,-0.14331 1.0914,-0.42994 v 0.95911 q -0.5457,0.23151 -1.119,0.35278 -0.5732,0.12127 -1.163,0.12127 -1.4773,0 -2.3427,-0.8599 -0.8599,-0.8599 -0.8599,-2.32613 0,-1.51584 0.8158,-2.4033 0.8213,-0.89297 2.2104,-0.89297 1.2457,0 1.9678,0.80477 0.7276,0.79927 0.7276,2.17731 z m -1.0142,-0.29766 q -0.011,-0.83234 -0.4685,-1.32843 -0.452,-0.49609 -1.2017,-0.49609 -0.8489,0 -1.3615,0.47955 -0.5071,0.47956 -0.5843,1.35048 z"
                     style="font-weight:normal;-inkscape-font-specification:sans-serif;fill:#ffffff"
                     id="path66647" />
                  <path
                     d="m 1586.8534,595.88204 q 0.3803,-0.68351 0.9095,-1.00872 0.5292,-0.32522 1.2458,-0.32522 0.9646,0 1.4882,0.67799 0.5237,0.67249 0.5237,1.91824 v 3.72621 h -1.0198 v -3.69314 q 0,-0.88746 -0.3141,-1.31741 -0.3142,-0.42995 -0.9592,-0.42995 -0.7882,0 -1.2457,0.52366 -0.4575,0.52365 -0.4575,1.42765 v 3.48919 h -1.0198 v -3.69314 q 0,-0.89297 -0.3142,-1.31741 -0.3142,-0.42995 -0.9701,-0.42995 -0.7772,0 -1.2347,0.52917 -0.4575,0.52366 -0.4575,1.42214 v 3.48919 h -1.0198 v -6.17361 h 1.0198 v 0.95911 q 0.3472,-0.56775 0.8323,-0.83785 0.4851,-0.27009 1.152,-0.27009 0.6725,0 1.1411,0.34175 0.474,0.34176 0.7,0.99219 z"
                     style="font-weight:normal;-inkscape-font-specification:sans-serif;fill:#ffffff"
                     id="path66649" />
                  <path
                     d="m 1598.3242,597.53018 v 0.49609 h -4.6633 q 0.066,1.04731 0.6284,1.59853 0.5678,0.5457 1.5765,0.5457 0.5843,0 1.13,-0.14332 0.5512,-0.14331 1.0914,-0.42994 v 0.95911 q -0.5457,0.23151 -1.119,0.35278 -0.5733,0.12127 -1.1631,0.12127 -1.4772,0 -2.3426,-0.8599 -0.8599,-0.8599 -0.8599,-2.32613 0,-1.51584 0.8158,-2.4033 0.8213,-0.89297 2.2104,-0.89297 1.2457,0 1.9678,0.80477 0.7276,0.79927 0.7276,2.17731 z m -1.0142,-0.29766 q -0.011,-0.83234 -0.4686,-1.32843 -0.452,-0.49609 -1.2016,-0.49609 -0.8489,0 -1.3615,0.47955 -0.5071,0.47956 -0.5843,1.35048 z"
                     style="font-weight:normal;-inkscape-font-specification:sans-serif;fill:#ffffff"
                     id="path66651" />
                  <path
                     d="m 1605.1207,597.14433 v 3.72621 h -1.0142 v -3.69314 q 0,-0.87643 -0.3418,-1.3119 -0.3418,-0.43546 -1.0253,-0.43546 -0.8213,0 -1.2953,0.52366 -0.4741,0.52365 -0.4741,1.42765 v 3.48919 h -1.0197 v -6.17361 h 1.0197 v 0.95911 q 0.3638,-0.55673 0.8544,-0.83233 0.4961,-0.27561 1.141,-0.27561 1.0639,0 1.6096,0.66146 0.5457,0.65594 0.5457,1.93477 z"
                     style="font-weight:normal;-inkscape-font-specification:sans-serif;fill:#ffffff"
                     id="path66653" />
                  <path
                     d="m 1608.1469,592.94406 v 1.75287 h 2.0891 v 0.78824 h -2.0891 v 3.35139 q 0,0.75516 0.2039,0.97014 0.2095,0.21497 0.8434,0.21497 h 1.0418 v 0.84887 h -1.0418 q -1.1741,0 -1.6206,-0.43546 -0.4465,-0.44097 -0.4465,-1.59852 v -3.35139 h -0.7441 v -0.78824 h 0.7441 v -1.75287 z"
                     style="font-weight:normal;-inkscape-font-specification:sans-serif;fill:#ffffff"
                     id="path66655" />
                  <path
                     d="m 1617.964,597.7672 q -1.2292,0 -1.7032,0.28112 -0.4741,0.28112 -0.4741,0.95911 0,0.5402 0.3528,0.8599 0.3583,0.31419 0.9701,0.31419 0.8434,0 1.3505,-0.59531 0.5127,-0.60082 0.5127,-1.59301 v -0.226 z m 2.023,-0.41892 v 3.52226 h -1.0142 v -0.93706 q -0.3473,0.56224 -0.8655,0.83233 -0.5181,0.26459 -1.2678,0.26459 -0.948,0 -1.5103,-0.52917 -0.5567,-0.53468 -0.5567,-1.42765 0,-1.0418 0.6945,-1.57096 0.7001,-0.52917 2.0836,-0.52917 h 1.4222 v -0.0992 q 0,-0.70004 -0.4631,-1.08038 -0.4575,-0.38585 -1.2898,-0.38585 -0.5292,0 -1.0308,0.12678 -0.5016,0.12677 -0.9646,0.38033 v -0.93706 q 0.5567,-0.21498 1.0804,-0.31971 0.5236,-0.11024 1.0197,-0.11024 1.3395,0 2.0009,0.69453 0.6615,0.69453 0.6615,2.10565 z"
                     style="font-weight:normal;-inkscape-font-specification:sans-serif;fill:#ffffff"
                     id="path66657" />
                  <path
                     d="m 1623.0573,599.9445 v 3.27422 h -1.0198 v -8.52179 h 1.0198 v 0.93706 q 0.3197,-0.55121 0.8047,-0.8158 0.4906,-0.27009 1.1686,-0.27009 1.1245,0 1.8245,0.89297 0.7056,0.89297 0.7056,2.34818 0,1.45521 -0.7056,2.34818 -0.7,0.89297 -1.8245,0.89297 -0.678,0 -1.1686,-0.26459 -0.485,-0.27009 -0.8047,-0.82131 z m 3.4506,-2.15525 q 0,-1.11897 -0.4631,-1.75287 -0.4575,-0.63941 -1.2622,-0.63941 -0.8048,0 -1.2678,0.63941 -0.4575,0.6339 -0.4575,1.75287 0,1.11897 0.4575,1.75838 0.463,0.63389 1.2678,0.63389 0.8047,0 1.2622,-0.63389 0.4631,-0.63941 0.4631,-1.75838 z"
                     style="font-weight:normal;-inkscape-font-specification:sans-serif;fill:#ffffff"
                     id="path66659" />
                  <path
                     d="m 1630.2231,599.9445 v 3.27422 h -1.0198 v -8.52179 h 1.0198 v 0.93706 q 0.3197,-0.55121 0.8047,-0.8158 0.4906,-0.27009 1.1686,-0.27009 1.1245,0 1.8245,0.89297 0.7056,0.89297 0.7056,2.34818 0,1.45521 -0.7056,2.34818 -0.7,0.89297 -1.8245,0.89297 -0.678,0 -1.1686,-0.26459 -0.485,-0.27009 -0.8047,-0.82131 z m 3.4506,-2.15525 q 0,-1.11897 -0.463,-1.75287 -0.4576,-0.63941 -1.2623,-0.63941 -0.8048,0 -1.2678,0.63941 -0.4575,0.6339 -0.4575,1.75287 0,1.11897 0.4575,1.75838 0.463,0.63389 1.2678,0.63389 0.8047,0 1.2623,-0.63389 0.463,-0.63941 0.463,-1.75838 z"
                     style="font-weight:normal;-inkscape-font-specification:sans-serif;fill:#ffffff"
                     id="path66661" />
                </g>
              </g>
            </g>
          </g>
          <g
             id="g66785"
             transform="matrix(0.58243834,0,0,0.58243834,448.46308,85.65465)">
            <path
               id="path66671"
               style="fill:url(#linearGradient66789);stroke-width:2.49252"
               d="m -634.70534,15.64605 c -94.98137,10e-6 -171.97916,76.99779 -171.97916,171.97917 10e-6,94.98137 76.99779,171.97915 171.97916,171.97916 3.55355,-0.004 7.10612,-0.11907 10.65258,-0.34365 0,0 0.23261,0.0475 0.26252,-0.0295 l 1.07125,-0.12092 c 1.54577,0.5211 3.41568,0.0923 5.33766,-0.60152 l 10.53062,-1.18752 c 83.11379,-13.64166 144.1185,-85.47024 144.12454,-169.6961 0,-94.98138 -76.99779,-171.97917 -171.97917,-171.97917 z m 19.32647,342.07524 c -0.25013,0.10336 -0.5009,0.20609 -0.75189,0.30696 0.25174,-0.10134 0.501,-0.20306 0.75189,-0.30696 z m -7.94112,1.13533 c 0.12273,0.0663 0.24954,0.1202 0.37724,0.17209 -0.12825,-0.0501 -0.25454,-0.10584 -0.37724,-0.17209 z m -0.25166,0.13798 c -0.11175,0.0792 -0.22306,0.15821 -0.24856,0.13746 0.037,0.0478 0.0384,0.0766 0.03,0.0987 0.008,-0.0222 0.007,-0.0509 -0.03,-0.0987 0.0256,0.0207 0.13678,-0.0583 0.24856,-0.13746 z" />
            <path
               id="path66673"
               style="fill:url(#radialGradient66791);fill-opacity:1;stroke-width:2.49252"
               d="m -634.70534,15.64605 c -57.06476,6e-6 -107.62849,27.800779 -138.91249,70.588972 0,0 -1.52583,3.042484 -1.4118,4.662248 1.29346,18.37398 7.48205,40.62762 23.2663,50.12149 36.59548,22.01136 86.66292,4.16199 127.93427,-6.81095 32.94717,-8.75977 71.90076,-18.0001 91.34539,-46.002882 6.86321,-9.883911 3.94963,-35.882564 3.94963,-35.882564 -9e-5,-6.5e-5 8e-5,-4.52e-4 0,-5.17e-4 -29.23679,-22.973818 -66.10397,-36.675797 -106.1713,-36.675797 z"
               sodipodi:nodetypes="scaaaaccs" />
            <path
               style="fill:url(#linearGradient66793);fill-opacity:1;stroke-width:2.64583"
               d="m -763.57495,-128.54814 c -14.90712,-5.73901 -27.95352,12.7347 -17.9395,26.28461 10.5255,2.837353 23.65702,-11.35527 17.9395,-26.28461 z"
               id="path66675"
               sodipodi:nodetypes="ccc" />
            <path
               id="path66677"
               style="fill:#fff599;fill-opacity:1;stroke-width:1.85275"
               d="m -776.00783,-120.62211 c -2.08842,-0.0615 -5.67424,0.5274 -2.42001,5.2095 23.24043,12.59879 42.97674,41.301243 57.24922,70.345574 12.85698,26.163792 21.55052,51.750456 27.36835,73.392936 1.20436,4.58486 5.02906,21.00121 -0.2558,27.18594 -2.79739,3.27371 -12.76666,1.97455 -12.76666,1.97455 0,0 3.96129,11.44325 0.51522,15.12931 -5.73241,6.13162 -18.36263,-4.07706 -25.16798,0.83664 -11.11271,8.02379 -17.05291,25.16826 -14.22755,38.58059 0.55224,2.62155 4.78451,3.2218 5.58674,5.77795 1.65789,5.28253 -2.65204,16.39693 -2.65204,16.39693 61.18869,-44.07325 121.59168,-72.85363 180.93004,-80.91754 0,0 -15.39755,-1.29511 -18.07745,-7.20215 -2.88702,-6.36359 9.52503,-13.25355 6.98821,-19.76468 -4.19767,-10.77394 -30.64103,-16.26102 -30.64103,-16.26102 0,0 -0.45338,19.67587 -7.86412,21.51031 -3.64379,0.90198 -8.35401,-7.55148 -8.35401,-7.55148 0,0 -1.93561,8.50117 -5.38675,8.93899 -8.1843,1.03828 -17.24252,-11.14913 -22.18521,-19.01848 -1.15036,-2.00075 -2.34013,-4.03665 -3.55585,-6.09885 -0.0317,-0.0605 -0.1695,-0.31522 -0.1695,-0.31522 l -0.0129,0.006 c -28.90427,-48.967371 -75.766,-113.64628 -124.12164,-128.09999 -0.21292,-0.0253 -0.48094,-0.047 -0.77928,-0.0558 z" />
            <path
               style="fill:url(#linearGradient66795);fill-opacity:1;stroke-width:2.64583"
               d="m -820.92044,-133.95042 18.93399,37.522811 10.64809,-12.998521 z"
               id="path66679" />
            <path
               style="fill:#292929;fill-opacity:1;stroke-width:15.5524"
               d="m -820.92044,-133.95042 62.59051,-76.40633"
               id="path66681" />
            <path
               style="fill:#00615c;fill-opacity:1;stroke-width:2.64583"
               d="m -807.86293,-149.89018 46.45808,3.92325 -11.29885,12.65655 z"
               id="path66683"
               sodipodi:nodetypes="cccc" />
            <ellipse
               style="fill:#805a0f;fill-opacity:1;stroke-width:0.568358"
               id="ellipse66685"
               transform="matrix(0.64889075,-0.76088159,0.78167425,0.62368692,0,0)"
               ry="1.8691993"
               rx="7.7405925"
               cy="-504.4689"
               cx="-505.95953" />
            <path
               id="path66687"
               style="fill:#4c462e;fill-opacity:1;stroke-width:0.568206"
               d="m -718.00163,64.34058 a 1.8681398,7.7408483 40.573853 0 0 -6.10247,4.83846 1.8681398,7.7408483 40.573853 0 0 -3.56155,7.05539 1.8681398,7.7408483 40.573853 0 0 0.91467,0.007 1.8681398,7.7408483 40.573853 0 1 3.7052,-6.00429 1.8681398,7.7408483 40.573853 0 1 5.56917,-4.72995 1.8681398,7.7408483 40.573853 0 0 -0.14366,-1.05265 1.8681398,7.7408483 40.573853 0 0 -0.38136,-0.1142 z" />
            <path
               style="fill:#1d2a29;fill-opacity:1;stroke-width:2.64583"
               d="m -792.3994,177.04185 10.13836,3.97343 c 0,0 4.21819,-17.20545 11.14532,-19.269 l 0.42238,-15.19872 c -8.62111,5.62366 -16.8952,12.3845 -21.70606,30.49429 z"
               id="path66689"
               sodipodi:nodetypes="ccccc" />
            <path
               style="fill:#1d2a29;fill-opacity:1;stroke-width:2.64583"
               d="m -792.3994,177.04185 10.13836,3.97343 c -3.68152,40.41341 15.43086,75.32902 46.749,107.30066 l -6.60849,10.24083 c -34.21931,-36.50638 -52.63263,-76.63263 -50.27887,-121.51492 z"
               id="path66691"
               sodipodi:nodetypes="ccccc" />
            <path
               style="fill:#1d2a29;fill-opacity:1;stroke-width:2.64583"
               d="m -747.33465,237.65003 14.41049,3.6526 c 39.94753,-54.93535 103.57272,-90.65659 164.26059,-128.76141 -85.25591,37.61118 -147.50154,78.88604 -178.67108,125.10881 z"
               id="path66693"
               sodipodi:nodetypes="cccc" />
            <ellipse
               style="fill:url(#linearGradient66797);fill-opacity:1;stroke-width:1.61256"
               id="ellipse66695"
               transform="matrix(0.64889075,-0.76088159,0.78167425,0.62368692,0,0)"
               ry="5.3033481"
               rx="21.96184"
               cy="-518.03076"
               cx="-528.68683" />
            <ellipse
               style="fill:#805a0f;fill-opacity:1;stroke-width:1.46367"
               id="ellipse66697"
               transform="matrix(0.39477744,-0.91877678,0.93118345,0.36455092,0,0)"
               ry="9.2524538"
               rx="19.93405"
               cy="-613.07562"
               cx="-417.01001" />
            <ellipse
               style="fill:#805a0f;fill-opacity:1;stroke-width:0.401779"
               id="ellipse66699"
               transform="matrix(0.39477744,-0.91877678,0.93118345,0.36455092,0,0)"
               ry="2.5398118"
               rx="5.4719253"
               cy="-593.65814"
               cx="-419.37506" />
            <ellipse
               style="fill:#805a0f;fill-opacity:1;stroke-width:0.768497"
               id="ellipse66701"
               transform="matrix(0.39477744,-0.91877678,0.93118345,0.36455092,0,0)"
               ry="4.8579907"
               rx="10.466351"
               cy="-603.34741"
               cx="-450.2774" />
            <ellipse
               style="fill:#805a0f;fill-opacity:1;stroke-width:1.22866"
               id="ellipse66703"
               transform="matrix(0.31302103,-0.9497462,0.95946541,0.2818264,0,0)"
               ry="4.040772"
               rx="16.733353"
               cy="-702.25879"
               cx="-344.23669" />
            <path
               style="fill:url(#linearGradient66799);fill-opacity:1;stroke-width:2.64583"
               d="m -717.41323,-57.786273 c 14.48866,25.078855 26.08876,52.411453 32.09406,80.745293 4.49872,21.22561 11.95612,47.01219 2.56313,65.04088 -7.25388,13.2242 -34.81618,28.90184 -34.81618,28.90184 42.24242,-23.56612 82.33964,-48.74949 133.50995,-59.64635 0,0 -24.46832,4.53864 -36.20112,1.66419 -22.59571,-5.64249 -29.56063,-26.57057 -40.44637,-47.33458 -12.4528,-26.11548 -28.09991,-50.799077 -45.49033,-73.921877 -16.91551,-20.176913 -26.96134,-21.67399 -26.96134,-21.67399 0,0 6.0714,9.83998 15.7482,26.224594 z"
               id="path66705"
               sodipodi:nodetypes="cacccccccc" />
            <ellipse
               style="fill:#805a0f;fill-opacity:1;stroke-width:0.491861"
               id="ellipse66707"
               transform="matrix(0.32107462,-0.9470539,0.95703766,0.28996364,0,0)"
               ry="1.6176147"
               rx="6.6987495"
               cy="-707.87036"
               cx="-346.11133" />
            <ellipse
               style="fill:#724c0d;fill-opacity:1;stroke-width:1.04733"
               id="ellipse66709"
               transform="matrix(0.58801628,0.80884909,-0.78920726,0.61412694,0,0)"
               ry="6.6205692"
               rx="14.263758"
               cy="549.28809"
               cx="-304.11343" />
            <ellipse
               style="fill:#724c0d;fill-opacity:1;stroke-width:0.588288"
               id="ellipse66711"
               transform="matrix(0.58801628,0.80884909,-0.78920726,0.61412694,0,0)"
               ry="3.7187889"
               rx="8.0119858"
               cy="533.09845"
               cx="-287.21603" />
            <ellipse
               style="fill:#724c0d;fill-opacity:1;stroke-width:0.294144"
               id="ellipse66713"
               transform="matrix(0.58801628,0.80884909,-0.78920726,0.61412694,0,0)"
               ry="1.8593944"
               rx="4.0059929"
               cy="537.53809"
               cx="-316.91498" />
            <path
               style="fill:#003d3a;fill-opacity:1;stroke-width:2.64583"
               d="m -801.98645,-96.427609 8.41477,-14.827671 2.23334,1.82917 z"
               id="path66715" />
            <path
               style="fill:#003d3a;fill-opacity:1;stroke-width:2.64583"
               d="m -761.40485,-145.96693 -14.21177,11.28292 2.91292,1.37363 z"
               id="path66717"
               sodipodi:nodetypes="cccc" />
            <path
               id="path66719"
               style="fill:#292929;fill-opacity:1;stroke-width:0.49173"
               d="m -786.54111,116.16842 a 1.6166978,6.6989708 18.843757 0 0 -3.59308,5.89216 1.6166978,6.6989708 18.843757 0 0 -0.60254,6.81302 1.6166978,6.6989708 18.843757 0 0 0.75138,-0.29921 1.6166978,6.6989708 18.843757 0 1 0.90951,-6.51382 1.6166978,6.6989708 18.843757 0 1 2.9471,-5.57588 1.6166978,6.6989708 18.843757 0 0 -0.30644,-0.29921 1.6166978,6.6989708 18.843757 0 0 -0.10593,-0.0171 z" />
            <path
               id="path66721"
               style="fill:url(#linearGradient66801);fill-opacity:1;stroke-width:1.61213"
               d="m -734.82284,62.14433 a 5.3003421,21.962566 40.573853 0 0 -17.31419,13.72733 5.3003421,21.962566 40.573853 0 0 -10.10532,20.0179 5.3003421,21.962566 40.573853 0 0 0.48059,0.24391 5.300342,21.962566 40.573853 0 1 10.68307,-18.67431 5.300342,21.962566 40.573853 0 1 17.91725,-13.63689 5.3003421,21.962566 40.573853 0 0 -0.57878,-1.35341 5.3003421,21.962566 40.573853 0 0 -1.08262,-0.32453 z" />
            <path
               id="path66723"
               style="fill:#292929;fill-opacity:1;stroke-width:1.22833"
               d="m -776.57326,113.08954 a 4.0384816,16.733906 18.357218 0 0 -8.8501,14.79393 4.0384816,16.733906 18.357218 0 0 -1.36064,17.03152 4.0384816,16.733906 18.357218 0 0 0.67025,-0.0181 4.0384816,16.733906 18.357218 0 1 2.27789,-15.95509 4.0384816,16.733906 18.357218 0 1 8.44703,-14.72933 4.0384816,16.733906 18.357218 0 0 -0.91984,-1.08263 4.0384816,16.733906 18.357218 0 0 -0.26459,-0.0403 z" />
            <path
               id="path66725"
               style="fill:#292929;fill-opacity:1;stroke-width:1.46328"
               d="m -729.56011,141.02376 a 9.2461607,19.93697 23.765458 0 0 -14.56758,15.24506 9.2461607,19.93697 23.765458 0 0 0.74621,21.68808 9.2461607,19.93697 23.765458 0 0 0.79118,0.22528 9.2461607,19.93697 23.765458 0 1 0.5793,-20.85506 9.2461607,19.93697 23.765458 0 1 15.70602,-15.1567 9.2461607,19.93697 23.765458 0 0 -1.3374,-0.84336 9.2461607,19.93697 23.765458 0 0 -1.91772,-0.30334 z" />
            <path
               id="path66727"
               style="fill:#292929;fill-opacity:1;stroke-width:0.401672"
               d="m -716.7304,163.78257 a 2.5380843,5.4727268 23.765458 0 0 -3.99924,4.18476 2.5380843,5.4727268 23.765458 0 0 0.20515,5.95364 2.5380843,5.4727268 23.765458 0 0 0.49403,0.0842 2.5380844,5.4727268 23.765458 0 1 0.35915,-5.5087 2.5380844,5.4727268 23.765458 0 1 4.0318,-4.18424 2.5380843,5.4727268 23.765458 0 0 -0.56483,-0.44648 2.5380843,5.4727268 23.765458 0 0 -0.52606,-0.0832 z" />
            <path
               id="path66729"
               style="fill:#292929;fill-opacity:1;stroke-width:0.768292"
               d="m -736.4615,183.97823 a 4.8546865,10.467884 23.765458 0 0 -7.64862,8.00417 4.8546865,10.467884 23.765458 0 0 0.16381,11.27838 4.8546866,10.467884 23.765458 0 1 0.89452,-10.22004 4.8546866,10.467884 23.765458 0 1 8.65528,-7.845 4.8546866,10.467884 23.765458 0 1 0.22788,0.10907 4.8546865,10.467884 23.765458 0 0 -1.28623,-1.16737 4.8546865,10.467884 23.765458 0 0 -1.00665,-0.15917 z" />
            <path
               id="path66731"
               style="fill:url(#linearGradient66803);fill-opacity:1;stroke-width:1.04705"
               d="m -618.47902,79.11798 a 14.265847,6.6160662 54.497 0 0 -2.23397,0.69556 14.265847,6.6160662 54.497 0 0 -0.95602,1.21647 14.265847,6.6160662 54.497 0 1 12.98061,7.84241 14.265847,6.6160662 54.497 0 1 4.11343,14.39757 14.265847,6.6160662 54.497 0 0 0.63662,-0.38193 14.265847,6.6160662 54.497 0 0 -3.1626,-15.60317 14.265847,6.6160662 54.497 0 0 -11.37811,-8.16695 z" />
            <path
               id="path66733"
               style="fill:url(#linearGradient66805);fill-opacity:1;stroke-width:0.294065"
               d="m -612.30835,70.34486 a 4.0065797,1.8581297 54.497 0 0 -0.62735,0.19535 4.0065797,1.8581297 54.497 0 0 -0.40773,0.86402 4.0065797,1.8581297 54.497 0 1 3.17242,2.29237 4.0065797,1.8581297 54.497 0 1 1.29605,3.51864 4.0065797,1.8581297 54.497 0 0 0.65061,-0.19481 4.0065797,1.8581297 54.497 0 0 -0.88833,-4.38217 4.0065797,1.8581297 54.497 0 0 -3.19567,-2.2934 z" />
            <path
               id="path66735"
               style="fill:url(#linearGradient66807);fill-opacity:1;stroke-width:0.588131"
               d="m -593.06921,88.20476 a 8.0131593,3.7162595 54.497 0 0 -1.2547,0.39067 8.0131593,3.7162595 54.497 0 0 -0.59118,0.80047 8.0131593,3.7162595 54.497 0 1 7.17889,4.45451 8.0131593,3.7162595 54.497 0 1 2.36626,7.96541 8.0131593,3.7162595 54.497 0 0 0.46817,-0.25945 8.0131593,3.7162595 54.497 0 0 -1.77611,-8.76432 8.0131593,3.7162595 54.497 0 0 -6.39135,-4.58731 z" />
            <path
               id="path66737"
               style="fill:url(#linearGradient66809);fill-opacity:1;stroke-width:2.17766"
               d="m -492.00708,222.21769 a 12.150001,18.921902 19.722504 0 1 5.14827,21.83742 12.150001,18.921902 19.722504 0 1 -17.79502,13.83031 12.150001,18.921902 19.722504 0 1 -5.14836,-21.83746 12.150001,18.921902 19.722504 0 1 17.79511,-13.83027 z" />
            <path
               id="path66739"
               style="fill:url(#linearGradient66811);fill-opacity:1;stroke-width:0.964725"
               d="m -499.83814,263.72849 a 5.4230746,8.3200642 27.624137 0 1 0.51144,10.11732 5.4230746,8.3200642 27.624137 0 1 -8.69923,4.35517 5.4230746,8.3200642 27.624137 0 1 -0.51146,-10.11735 5.4230746,8.3200642 27.624137 0 1 8.69925,-4.35514 z" />
            <path
               id="path66741"
               style="fill:url(#linearGradient66813);fill-opacity:1;stroke-width:0.408891"
               d="m -482.13326,252.28238 a 2.1129115,3.8361691 27.577934 0 1 -0.31391,4.62301 2.1129115,3.8361691 27.577934 0 1 -3.63658,1.9146 2.1129115,3.8361691 27.577934 0 1 0.3139,-4.62301 2.1129115,3.8361691 27.577934 0 1 3.63659,-1.9146 z" />
            <path
               id="path66743"
               style="fill:url(#linearGradient66815);fill-opacity:1;stroke-width:1.50222"
               d="m -471.52627,164.46571 a 17.179998,6.3681165 74.493568 0 1 -10.81079,-10.59535 17.179998,6.3681165 74.493568 0 1 -0.79151,-21.01541 17.179998,6.3681165 74.493568 0 1 10.81084,10.5953 17.179998,6.3681165 74.493568 0 1 0.79146,21.01546 z" />
            <path
               id="path66745"
               style="fill:url(#linearGradient66817);fill-opacity:1;stroke-width:0.811006"
               d="m -488.75062,130.22904 a 8.0267378,3.9725701 59.6282 0 1 -7.46948,-4.71212 8.0267378,3.9725701 59.6282 0 1 -0.80113,-9.04325 8.0267378,3.9725701 59.6282 0 1 7.4695,4.71212 8.0267378,3.9725701 59.6282 0 1 0.80111,9.04325 z" />
            <path
               id="path66747"
               style="fill:url(#linearGradient66819);fill-opacity:1;stroke-width:0.343119"
               d="m -489.41804,140.50839 a 3.2181257,1.7735811 51.170018 0 1 -3.44994,-1.80034 3.2181257,1.7735811 51.170018 0 1 -0.24258,-3.43536 3.2181257,1.7735811 51.170018 0 1 3.44996,1.80035 3.2181257,1.7735811 51.170018 0 1 0.24257,3.43535 z" />
            <path
               id="path66749"
               style="fill:#292929;fill-opacity:1;stroke-width:2.17766"
               d="m -490.12531,223.18828 a 12.150001,18.921902 19.722504 0 1 2.0066,19.81054 12.150001,18.921902 19.722504 0 1 -17.7949,13.83065 12.150001,18.921902 19.722504 0 1 -1.88297,-0.97124 12.150001,18.921902 19.722504 0 0 3.14286,2.02735 12.150001,18.921902 19.722504 0 0 17.79487,-13.83065 12.150001,18.921902 19.722504 0 0 -3.26646,-20.86665 z" />
            <path
               id="path66751"
               style="fill:#292929;fill-opacity:1;stroke-width:0.964725"
               d="m -499.73464,263.7962 a 5.4230746,8.3200642 27.624137 0 1 -0.85701,8.62111 5.4230746,8.3200642 27.624137 0 1 -8.69918,4.35568 5.4230746,8.3200642 27.624137 0 1 -0.10148,-0.0711 5.4230746,8.3200642 27.624137 0 0 1.3665,1.4994 5.4230746,8.3200642 27.624137 0 0 8.69918,-4.35568 5.4230746,8.3200642 27.624137 0 0 -0.40801,-10.04938 z" />
            <path
               id="path66753"
               style="fill:#292929;fill-opacity:1;stroke-width:0.408891"
               d="m -482.51236,252.07503 a 2.1129115,3.8361691 27.577934 0 0 -0.19764,-0.0448 2.1129115,3.8361691 27.577934 0 1 -0.89951,3.36205 2.1129115,3.8361691 27.577934 0 1 -3.05851,2.16687 2.1129115,3.8361691 27.577934 0 0 0.58441,1.26081 2.1129115,3.8361691 27.577934 0 0 3.63648,-1.91471 2.1129115,3.8361691 27.577934 0 0 0.31396,-4.6227 2.1129115,3.8361691 27.577934 0 0 -0.37921,-0.2075 z" />
            <path
               id="path66755"
               style="fill:#292929;fill-opacity:1;stroke-width:1.50222"
               d="m -481.21032,132.01879 a 17.179998,6.3681165 74.493568 0 0 -1.65261,0.59635 17.179998,6.3681165 74.493568 0 1 9.48676,11.36416 17.179998,6.3681165 74.493568 0 1 0.79168,21.01578 17.179998,6.3681165 74.493568 0 1 -0.26871,0.24856 17.179998,6.3681165 74.493568 0 0 1.32704,-0.77773 17.179998,6.3681165 74.493568 0 0 -0.79169,-21.01577 17.179998,6.3681165 74.493568 0 0 -8.89247,-11.43135 z" />
            <path
               id="path66757"
               style="fill:#292929;fill-opacity:1;stroke-width:0.811006"
               d="m -495.96807,116.14431 a 8.0267378,3.9725701 59.6282 0 0 -1.05318,0.32918 8.0267378,3.9725701 59.6282 0 0 -0.2868,0.23203 8.0267378,3.9725701 59.6282 0 1 6.69778,5.00951 8.0267378,3.9725701 59.6282 0 1 1.08779,8.81187 8.0267378,3.9725701 59.6282 0 0 0.77205,-0.29766 8.0267378,3.9725701 59.6282 0 0 -0.80151,-9.04338 8.0267378,3.9725701 59.6282 0 0 -6.41613,-5.04155 z" />
            <path
               id="path66759"
               style="fill:#292929;fill-opacity:1;stroke-width:0.343119"
               d="m -492.60962,135.14935 a 3.2181257,1.7735811 51.170018 0 0 -0.50075,0.12351 3.2181257,1.7735811 51.170018 0 0 -0.41909,0.40618 3.2181257,1.7735811 51.170018 0 1 2.81068,1.92339 3.2181257,1.7735811 51.170018 0 1 0.66249,3.02876 3.2181257,1.7735811 51.170018 0 0 0.63821,-0.12299 3.2181257,1.7735811 51.170018 0 0 -0.24237,-3.43493 3.2181257,1.7735811 51.170018 0 0 -2.94917,-1.92392 z" />
            <path
               id="path66761"
               style="fill:url(#linearGradient66821);fill-opacity:1;stroke-width:1.88384"
               d="m -846.54409,-160.08792 c 17.57866,20.00278 38.91895,39.33752 65.02963,57.82438 -10.01401,-13.5499 3.03236,-32.02371 17.93947,-26.2847 -28.22703,-14.78407 -56.41086,-29.24462 -82.9691,-31.53968 z" />
            <path
               style="fill:url(#linearGradient66823);fill-opacity:1;stroke-width:2.64583"
               d="m -814.9438,-152.59749 c -9.15764,0.7222 -12.00675,4.57513 -11.56831,13.40209 -8.17828,-7.77578 -12.97929,-12.73792 -20.03196,-20.89226 12.10586,1.10793 19.884,2.96824 31.60027,7.49017 z"
               id="path66763"
               sodipodi:nodetypes="cccc" />
            <path
               style="fill:#00ff66;fill-opacity:1;stroke-width:2.64583"
               d="m -771.11572,161.74639 c -7.38319,3.55175 -9.03026,12.53888 -11.14532,19.26889 -3.55713,45.13402 18.78391,77.67519 46.57386,107.56683 45.42359,-65.54392 99.18533,-125.28734 167.0236,-176.04089 -58.026,36.45862 -120.73231,70.34738 -164.26059,128.76141 l -14.41051,-3.6526 c -15.5471,-21.609 -23.26932,-47.00945 -23.78104,-75.90364 z"
               id="path66765"
               sodipodi:nodetypes="ccccccc" />
            <path
               id="path66767"
               style="fill:#fffdb8;fill-opacity:1;stroke-width:2.64583"
               d="m -603.57857,10.06242 c 0,0 19.51508,5.514834 21.53926,13.7976 1.67213,6.842231 -10.53062,18.31981 -10.53062,18.31981 l 16.50804,7.4719 c -1.77566,-0.94348 -3.20573,-2.11299 -3.86385,-3.56361 -2.88701,-6.36358 9.52502,-13.25356 6.98821,-19.76468 -4.19767,-10.77393 -30.64103,-16.26102 -30.64104,-16.26102 z m 29.61216,40.53757 0.2005,0.0909 0.004,-0.0119 c -0.0682,-0.0263 -0.13638,-0.0523 -0.20412,-0.0791 z"
               sodipodi:nodetypes="caccsscccccc" />
            <path
               id="path66769"
               style="fill:#fffdb8;fill-opacity:1;stroke-width:2.64583"
               d="m -693.81027,28.3259 c 1.20436,4.58486 5.02906,21.00121 -0.2558,27.18594 -2.79738,3.2737 -12.76666,1.97455 -12.76666,1.97455 0,0 10.68003,6.351933 15.07763,3.63389 5.5365,-3.421965 5.08169,-12.552223 4.39612,-19.02468 -0.53389,-5.040485 -6.45129,-13.7697 -6.45129,-13.7697 z"
               sodipodi:nodetypes="cscaac" />
            <path
               id="path66771"
               style="fill:#fffdc2;fill-opacity:1;stroke-width:1.85275"
               d="m -610.2283,32.57473 17.65837,9.6051 3.58426,-2.15336 z" />
            <path
               id="path66773"
               style="fill:#fffdb8;fill-opacity:1;stroke-width:1.85275"
               d="m -646.03386,16.01347 c 0,0 4.46212,12.849877 9.40253,17.06614 4.33231,3.697296 11.33337,8.944869 16.07551,5.79035 4.12644,-2.74495 0.75913,-14.84871 0.75913,-14.84871 0,0 -1.93561,8.50117 -5.38675,8.93899 -7.50261,0.9518 -15.70044,-9.17833 -20.82818,-16.94005 z"
               sodipodi:nodetypes="caacscc" />
            <path
               id="path66775"
               style="fill:#fffdb8;fill-opacity:1;stroke-width:1.85275"
               d="m -613.35523,37.65505 c 0,0 -2.34471,6.391866 -4.85964,8.44858 -2.19103,1.791822 -8.0543,2.68872 -8.0543,2.68872 0,0 8.93013,1.171582 11.69852,-1.62781 2.24702,-2.272189 1.21542,-9.50949 1.21542,-9.50949 z"
               sodipodi:nodetypes="cacac" />
            <path
               id="path66777"
               style="fill:#fffdc2;fill-opacity:1;stroke-width:1.85275"
               d="m -684.79583,56.94276 c 0,0 0.57839,6.092228 -0.26716,8.95707 -0.58931,1.99668 -3.23339,5.34335 -3.23339,5.34335 0,0 4.66982,-1.941225 5.49527,-4.06487 1.25933,-3.239892 -1.99472,-10.23555 -1.99472,-10.23555 z"
               sodipodi:nodetypes="cacac" />
            <path
               id="path66779"
               style="fill:#fffdb8;fill-opacity:1;stroke-width:1.85275"
               d="m -691.05695,80.75319 c 0,0 -8.63665,13.847354 -15.77578,16.43621 -6.10246,2.212928 -19.35592,-2.14044 -19.35592,-2.14044 0,0 14.97446,8.17214 22.01933,5.43016 7.3578,-2.863784 13.11237,-19.72593 13.11237,-19.72593 z"
               sodipodi:nodetypes="cacac" />
            <path
               id="path66781"
               style="fill:#fffdb8;fill-opacity:1;stroke-width:2.64583"
               d="m -704.91552,67.17831 -0.007,0.001 c 0.0598,2.19317 -0.26777,4.2309 -1.39474,5.43636 -5.73241,6.13162 -18.36263,-4.07705 -25.16798,0.83664 -1.68765,1.21855 -3.25419,2.64995 -4.69067,4.24419 0,0 6.25667,-1.711919 9.42527,-1.45521 6.22152,0.504046 11.59968,6.472892 17.80511,5.79913 3.21676,-0.349264 7.36985,-1.839641 8.36952,-4.91701 1.11745,-3.439932 -4.33951,-9.9451 -4.33951,-9.9451 z"
               sodipodi:nodetypes="ccsscaaac" />
            <path
               id="path66783"
               style="fill:#fffdb3;fill-opacity:1;stroke-width:2.64583"
               d="m -745.13684,95.09547 c -1.41805,5.69898 -1.6983,11.61068 -0.57619,16.93746 0.55224,2.62155 4.7845,3.2218 5.58673,5.77795 1.65789,5.28252 -2.65204,16.39693 -2.65204,16.39693 0,0 17.45604,-11.50753 14.90452,-19.19625 -1.52725,-4.60219 -10.71473,-0.32962 -14.02085,-3.87676 -3.71902,-3.99015 -3.24217,-16.03933 -3.24217,-16.03933 z"
               sodipodi:nodetypes="csscaac" />
          </g>
        </g>
      </g>
    </g>
  </g>
</svg>
