<?xml version="1.0" encoding="UTF-8" standalone="no"?>
<!-- Created with Inkscape (http://www.inkscape.org/) -->

<svg
   width="1331.9475"
   height="1500.2522"
   viewBox="0 0 352.4111 396.94173"
   version="1.1"
   id="svg5"
   inkscape:version="1.2.2 (1:1.2.2+202212051551+b0a8486541)"
   sodipodi:docname="greenmark_illustration_3.svg"
   inkscape:export-filename="greenmark_illustration_3.png"
   inkscape:export-xdpi="96"
   inkscape:export-ydpi="96"
   xmlns:inkscape="http://www.inkscape.org/namespaces/inkscape"
   xmlns:sodipodi="http://sodipodi.sourceforge.net/DTD/sodipodi-0.dtd"
   xmlns:xlink="http://www.w3.org/1999/xlink"
   xmlns="http://www.w3.org/2000/svg"
   xmlns:svg="http://www.w3.org/2000/svg">
  <sodipodi:namedview
     id="namedview7"
     pagecolor="#ffffff"
     bordercolor="#000000"
     borderopacity="0.25"
     inkscape:showpageshadow="2"
     inkscape:pageopacity="0.0"
     inkscape:pagecheckerboard="0"
     inkscape:deskcolor="#d1d1d1"
     inkscape:document-units="px"
     showgrid="false"
     inkscape:zoom="0.35010522"
     inkscape:cx="689.79263"
     inkscape:cy="586.9664"
     inkscape:window-width="1920"
     inkscape:window-height="952"
     inkscape:window-x="0"
     inkscape:window-y="27"
     inkscape:window-maximized="1"
     inkscape:current-layer="layer1" />
  <defs
     id="defs2">
    <linearGradient
       inkscape:collect="always"
       xlink:href="#linearGradient6632-3"
       id="linearGradient7784"
       gradientUnits="userSpaceOnUse"
       x1="-219.19978"
       y1="474.18369"
       x2="38.912418"
       y2="297"
       gradientTransform="rotate(0.01086727,2047851.4,957671.01)" />
    <linearGradient
       inkscape:collect="always"
       id="linearGradient6632-3">
      <stop
         style="stop-color:#3cb8b0;stop-opacity:1;"
         offset="0"
         id="stop6628-1" />
      <stop
         style="stop-color:#256a65;stop-opacity:1;"
         offset="1"
         id="stop6630-4" />
    </linearGradient>
    <linearGradient
       inkscape:collect="always"
       xlink:href="#linearGradient16701"
       id="linearGradient61742"
       gradientUnits="userSpaceOnUse"
       gradientTransform="rotate(-11.699794,-387.05516,1521.377)"
       x1="-94.149818"
       y1="324.57968"
       x2="62.32835"
       y2="117.22058" />
    <linearGradient
       inkscape:collect="always"
       id="linearGradient16701">
      <stop
         style="stop-color:#cccccc;stop-opacity:0;"
         offset="0"
         id="stop16697" />
      <stop
         style="stop-color:#cccccc;stop-opacity:1;"
         offset="1"
         id="stop16699" />
    </linearGradient>
    <linearGradient
       inkscape:collect="always"
       xlink:href="#linearGradient15769"
       id="linearGradient61744"
       gradientUnits="userSpaceOnUse"
       gradientTransform="translate(-300.46888,-110.0973)"
       x1="129.31355"
       y1="43.382542"
       x2="139.37186"
       y2="40.452827" />
    <linearGradient
       inkscape:collect="always"
       id="linearGradient15769">
      <stop
         style="stop-color:#a49573;stop-opacity:1;"
         offset="0"
         id="stop15765" />
      <stop
         style="stop-color:#7d410a;stop-opacity:1;"
         offset="1"
         id="stop15767" />
    </linearGradient>
    <linearGradient
       inkscape:collect="always"
       xlink:href="#linearGradient16701"
       id="linearGradient61738"
       gradientUnits="userSpaceOnUse"
       gradientTransform="rotate(-11.699794,-29.035359,-151.44024)"
       x1="-360.62885"
       y1="-19.204443"
       x2="-257.12814"
       y2="-43.17506" />
    <linearGradient
       inkscape:collect="always"
       xlink:href="#linearGradient15777"
       id="linearGradient61740"
       gradientUnits="userSpaceOnUse"
       gradientTransform="translate(-310.76091,-72.272603)"
       x1="198.91644"
       y1="-60.695648"
       x2="209.28851"
       y2="-60.320568" />
    <linearGradient
       inkscape:collect="always"
       id="linearGradient15777">
      <stop
         style="stop-color:#8f8861;stop-opacity:1;"
         offset="0"
         id="stop15773" />
      <stop
         style="stop-color:#7d410a;stop-opacity:1;"
         offset="1"
         id="stop15775" />
    </linearGradient>
    <linearGradient
       inkscape:collect="always"
       xlink:href="#linearGradient16701"
       id="linearGradient61734"
       gradientUnits="userSpaceOnUse"
       gradientTransform="rotate(-11.699794,-657.12056,1493.6554)"
       x1="-9.1894331"
       y1="395.27631"
       x2="13.893008"
       y2="252.95294" />
    <linearGradient
       inkscape:collect="always"
       xlink:href="#linearGradient16596"
       id="linearGradient61736"
       gradientUnits="userSpaceOnUse"
       gradientTransform="translate(-289.23638,-164.2863)"
       x1="45.248566"
       y1="173.30653"
       x2="59.93325"
       y2="165.77654" />
    <linearGradient
       inkscape:collect="always"
       id="linearGradient16596">
      <stop
         style="stop-color:#95725b;stop-opacity:1;"
         offset="0"
         id="stop16592" />
      <stop
         style="stop-color:#7d410a;stop-opacity:1;"
         offset="1"
         id="stop16594" />
    </linearGradient>
    <linearGradient
       inkscape:collect="always"
       xlink:href="#linearGradient24043"
       id="linearGradient63818"
       gradientUnits="userSpaceOnUse"
       gradientTransform="rotate(0.01086727,870770.36,1997862.9)"
       x1="-414.29276"
       y1="200.60898"
       x2="-252.5876"
       y2="200.60898" />
    <linearGradient
       inkscape:collect="always"
       id="linearGradient24043">
      <stop
         style="stop-color:#00ff78;stop-opacity:1;"
         offset="0"
         id="stop24039" />
      <stop
         style="stop-color:#00b251;stop-opacity:1;"
         offset="1"
         id="stop24041" />
    </linearGradient>
    <linearGradient
       inkscape:collect="always"
       xlink:href="#linearGradient24063"
       id="linearGradient64743"
       gradientUnits="userSpaceOnUse"
       gradientTransform="translate(348.6404,1124.4235)"
       x1="-157.57941"
       y1="181.71933"
       x2="-149.94174"
       y2="189.74808" />
    <linearGradient
       inkscape:collect="always"
       id="linearGradient24063">
      <stop
         style="stop-color:#120f08;stop-opacity:1;"
         offset="0"
         id="stop24059" />
      <stop
         style="stop-color:#13442f;stop-opacity:1;"
         offset="1"
         id="stop24061" />
    </linearGradient>
    <filter
       inkscape:collect="always"
       style="color-interpolation-filters:sRGB"
       id="filter24055"
       x="-0.099727643"
       y="-0.11113219"
       width="1.1994553"
       height="1.2222644">
      <feGaussianBlur
         inkscape:collect="always"
         stdDeviation="4.0223605"
         id="feGaussianBlur24057" />
    </filter>
    <radialGradient
       inkscape:collect="always"
       xlink:href="#linearGradient24083"
       id="radialGradient64751"
       gradientUnits="userSpaceOnUse"
       gradientTransform="matrix(-2.0121687,-3.4513955,2.4703329,-1.440209,-1233.7499,1081.3243)"
       cx="-236.38368"
       cy="358.02631"
       fx="-236.38368"
       fy="358.02631"
       r="33.554844" />
    <linearGradient
       inkscape:collect="always"
       id="linearGradient24083">
      <stop
         style="stop-color:#13442f;stop-opacity:1;"
         offset="0"
         id="stop24081" />
      <stop
         style="stop-color:#120f08;stop-opacity:1;"
         offset="1"
         id="stop24079" />
    </linearGradient>
    <filter
       inkscape:collect="always"
       style="color-interpolation-filters:sRGB"
       id="filter23418"
       x="-0.14024375"
       y="-0.064244762"
       width="1.2804875"
       height="1.1284895">
      <feGaussianBlur
         inkscape:collect="always"
         stdDeviation="3.0625424"
         id="feGaussianBlur23420" />
    </filter>
    <radialGradient
       inkscape:collect="always"
       xlink:href="#linearGradient24083"
       id="radialGradient64749"
       gradientUnits="userSpaceOnUse"
       gradientTransform="matrix(4.7257697,-3.728029,4.8954552,6.205637,71.33378,-625.8032)"
       cx="-193.57935"
       cy="197.54919"
       fx="-193.57935"
       fy="197.54919"
       r="10.115747" />
    <filter
       inkscape:collect="always"
       style="color-interpolation-filters:sRGB"
       id="filter24067"
       x="-0.39573275"
       y="-0.24192685"
       width="1.7914655"
       height="1.4838537">
      <feGaussianBlur
         inkscape:collect="always"
         stdDeviation="2.7084115"
         id="feGaussianBlur24069" />
    </filter>
  </defs>
  <g
     inkscape:label="Layer 1"
     inkscape:groupmode="layer"
     id="layer1"
     transform="translate(248.6445,122.0505)">
    <g
       id="g69758">
      <path
         id="path66219"
         style="fill:#1a1a1a;fill-opacity:0.998668;stroke-width:2.63651"
         d="m -248.6445,-122.0505 -0.001,5.1997 a 396.875,396.875 0 0 1 2.6247,-5.1991 z" />
      <path
         id="path66221"
         style="fill:#0d0d0d;fill-opacity:1;stroke-width:2.63651"
         d="m -246.1185,-122.0499 a 396.875,396.875 0 0 0 -2.527,4.7568 v 19.0071 a 396.875,396.875 0 0 1 13.5583,-23.7619 z" />
      <path
         id="path66223"
         style="fill:#1a1a1a;fill-opacity:0.998668;stroke-width:2.63651"
         d="m -235.2122,-122.0479 a 396.875,396.875 0 0 0 -13.4369,23.5712 v 19.2774 a 396.875,396.875 0 0 1 26.8655,-42.846 z" />
      <path
         id="path66225"
         style="fill:#0d0d0d;fill-opacity:1;stroke-width:2.63651"
         d="m -221.9618,-122.0453 a 396.875,396.875 0 0 0 -26.6904,42.385 v 19.5461 a 396.875,396.875 0 0 1 42.9017,-61.928 z" />
      <path
         id="path66227"
         style="fill:#1a1a1a;fill-opacity:0.998668;stroke-width:2.63651"
         d="m -206.0202,-122.0422 a 396.875,396.875 0 0 0 -42.6356,61.1973 v 19.8169 a 396.875,396.875 0 0 1 62.143,-81.0106 z" />
      <path
         id="path66231"
         style="fill:#0d0d0d;fill-opacity:1;stroke-width:2.63651"
         d="m -186.9226,-122.0386 a 396.875,396.875 0 0 0 -61.7368,80.2654 v 19.8308 a 396.875,396.875 0 0 1 85.2455,-100.092 z" />
      <path
         id="path66233"
         style="fill:#1a1a1a;fill-opacity:0.998668;stroke-width:2.63651"
         d="m -163.7153,-122.0344 a 396.875,396.875 0 0 0 -84.9478,99.8213 v 19.7502 a 396.875,396.875 0 0 1 114.2395,-119.5659 z" />
      <path
         id="path66235"
         style="fill:#0d0d0d;fill-opacity:1;stroke-width:2.63651"
         d="M -134.7093,-122.0288 A 396.875,396.875 0 0 0 -248.6672,-2.6531 V 17.2992 A 396.875,396.875 0 0 1 -97.5488,-122.022 Z" />
      <path
         id="path66237"
         style="fill:#1a1a1a;fill-opacity:0.998668;stroke-width:2.63651"
         d="M -97.6692,-122.022 A 396.875,396.875 0 0 0 -248.6708,16.9064 v 20.1538 a 396.875,396.875 0 0 1 204.3549,-159.0719 z" />
      <path
         id="path66239"
         style="fill:#0d0d0d;fill-opacity:1;stroke-width:2.63651"
         d="M -44.628,-122.0117 A 396.875,396.875 0 0 0 -248.6744,36.467 V 56.8223 A 396.875,396.875 0 0 1 103.8451,-118.8 l 5e-4,-3.1838 z" />
      <path
         id="path66241"
         style="fill:#1a1a1a;fill-opacity:1;stroke-width:2.63651"
         d="M 71.3329,-119.5028 A 396.875,396.875 0 0 0 -248.678,56.0518 V 76.5844 A 396.875,396.875 0 0 1 103.8411,-94.6868 V -118.8 a 396.875,396.875 0 0 0 -32.5086,-0.7028 z" />
      <path
         id="path66243"
         style="fill:#0d0d0d;fill-opacity:1;stroke-width:2.63651"
         d="M 68.6282,-95.6019 A 396.875,396.875 0 0 0 -248.6817,76.2093 v 20.2514 a 396.875,396.875 0 0 1 352.518,-167.0342 v -24.1127 a 396.875,396.875 0 0 0 -35.2087,-0.9157 z" />
      <path
         id="path66682"
         style="fill:#1a1a1a;fill-opacity:0.998668;stroke-width:2.63651"
         d="M 65.9239,-71.7016 A 396.875,396.875 0 0 0 -248.6858,96.3651 v 20.4071 a 396.875,396.875 0 0 1 352.517,-163.233 V -70.574 a 396.875,396.875 0 0 0 -37.9083,-1.1276 z" />
      <path
         id="path66684"
         style="fill:#0d0d0d;fill-opacity:1;stroke-width:2.63651"
         d="m 63.2197,-47.8013 a 396.875,396.875 0 0 0 -311.9091,164.3228 v 20.5621 A 396.875,396.875 0 0 1 103.827,-22.348 v -24.1128 a 396.875,396.875 0 0 0 -40.6079,-1.3405 z" />
      <path
         id="path66686"
         style="fill:#1a1a1a;fill-opacity:0.998668;stroke-width:2.63651"
         d="m 60.5155,-23.9009 a 396.875,396.875 0 0 0 -309.209,160.5788 v 20.7176 A 396.875,396.875 0 0 1 103.822,1.7647 V -22.348 a 396.875,396.875 0 0 0 -43.3074,-1.5529 z" />
      <path
         id="path66688"
         style="fill:#0d0d0d;fill-opacity:1;stroke-width:2.63651"
         d="m 57.8107,0 a 396.875,396.875 0 0 0 -306.5079,156.8353 v 20.8722 A 396.875,396.875 0 0 1 103.8182,25.878 V 1.7652 A 396.875,396.875 0 0 0 57.8106,0 Z" />
      <path
         id="path66690"
         style="fill:#1a1a1a;fill-opacity:1;stroke-width:2.63651"
         d="m 55.1065,23.9003 a 396.875,396.875 0 0 0 -303.8073,153.1762 v 20.9424 A 396.875,396.875 0 0 1 103.8136,49.9907 V 25.878 A 396.875,396.875 0 0 0 55.106,23.9003 Z" />
      <path
         id="path66692"
         style="fill:#0d0d0d;fill-opacity:1;stroke-width:2.63651"
         d="m 52.4023,47.8012 a 396.875,396.875 0 0 0 -301.1072,149.9247 v 20.7398 A 396.875,396.875 0 0 1 103.8084,74.104 V 49.9912 a 396.875,396.875 0 0 0 -51.4072,-2.19 z" />
      <path
         id="path66694"
         style="fill:#1a1a1a;fill-opacity:0.998668;stroke-width:2.63651"
         d="M 49.698,71.7015 A 396.875,396.875 0 0 0 -248.7085,218.3758 V 239.237 A 396.875,396.875 0 0 1 101.112,98.0048 a 396.875,396.875 0 0 1 2.6924,0.3354 V 74.104 A 396.875,396.875 0 0 0 49.6976,71.7015 Z" />
      <path
         id="path66696"
         style="fill:#0d0d0d;fill-opacity:1;stroke-width:2.63651"
         d="m 46.9933,95.6019 a 396.875,396.875 0 0 0 -295.706,143.4233 v 20.9837 a 396.875,396.875 0 0 1 347.1199,-138.1037 396.875,396.875 0 0 1 5.3924,0.6713 V 98.3412 a 396.875,396.875 0 0 0 -2.6929,-0.3364 396.875,396.875 0 0 0 -54.114,-2.4029 z" />
      <path
         id="path66698"
         style="fill:#1a1a1a;fill-opacity:0.998668;stroke-width:2.63651"
         d="m 44.2891,119.5022 a 396.875,396.875 0 0 0 -293.0054,140.1723 v 15.15 h 5.1387 A 396.875,396.875 0 0 1 95.702,145.8044 a 396.875,396.875 0 0 1 8.092,1.0077 v -24.2347 a 396.875,396.875 0 0 0 -5.3924,-0.6733 396.875,396.875 0 0 0 -54.114,-2.403 z" />
      <path
         id="path66700"
         style="fill:#0d0d0d;fill-opacity:1;stroke-width:2.63651"
         d="m 41.5848,143.4031 a 396.875,396.875 0 0 0 -285.5577,131.4225 h 20.9631 a 396.875,396.875 0 0 1 316.0044,-105.1228 396.875,396.875 0 0 1 10.7916,1.3896 v -24.2797 a 396.875,396.875 0 0 0 -8.092,-1.0103 396.875,396.875 0 0 0 -54.1141,-2.4029 z" />
      <path
         id="path66702"
         style="fill:#1a1a1a;fill-opacity:1;stroke-width:2.63651"
         d="m 38.8801,167.3034 a 396.875,396.875 0 0 0 -261.9747,107.5258 l 25.585,0.01 a 396.875,396.875 0 0 1 287.7995,-81.2276 396.875,396.875 0 0 1 13.4917,1.787 V 171.0988 A 396.875,396.875 0 0 0 92.99,169.7113 396.875,396.875 0 0 0 38.8755,167.3083 Z" />
      <path
         id="path66704"
         style="fill:#0d0d0d;fill-opacity:1;stroke-width:2.63651"
         d="m 36.1759,191.2043 a 396.875,396.875 0 0 0 -234.0162,83.63 l 31.5732,0.01 a 396.875,396.875 0 0 1 253.8528,-57.3324 396.875,396.875 0 0 1 16.1912,2.1844 v -24.2967 a 396.875,396.875 0 0 0 -13.4917,-1.788 396.875,396.875 0 0 0 -54.114,-2.403 z" />
      <path
         id="path66706"
         style="fill:#1a1a1a;fill-opacity:0.998668;stroke-width:2.63651"
         d="M 33.4716,215.1047 A 396.875,396.875 0 0 0 -166.3203,274.84 l 41.9866,0.01 a 396.875,396.875 0 0 1 209.2151,-33.4403 396.875,396.875 0 0 1 18.8909,2.6138 V 219.6978 A 396.875,396.875 0 0 0 87.5811,217.5093 396.875,396.875 0 0 0 33.467,215.1064 Z" />
      <path
         id="path66708"
         style="fill:#0d0d0d;fill-opacity:1;stroke-width:2.63651"
         d="m 30.7674,239.005 a 396.875,396.875 0 0 0 -155.4225,35.8428 l 66.2771,0.013 a 396.875,396.875 0 0 1 140.5552,-9.5524 396.875,396.875 0 0 1 21.5904,3.0727 v -24.366 a 396.875,396.875 0 0 0 -18.8909,-2.607 396.875,396.875 0 0 0 -54.114,-2.403 z" />
      <path
         id="path66710"
         style="fill:#1a1a1a;fill-opacity:0.998668;stroke-width:2.63651"
         d="m 28.0627,262.9054 a 396.875,396.875 0 0 0 -86.9337,11.9548 l 162.6376,0.031 0.001,-6.5118 a 396.875,396.875 0 0 0 -21.5904,-3.0711 396.875,396.875 0 0 0 -54.1145,-2.4029 z" />
      <path
         id="circle7710"
         style="fill:url(#linearGradient7784);fill-opacity:1;stroke-width:2.49252"
         d="M 0.904,-122.613 A 171.97917,171.97917 0 0 0 -57.4167,6.2787 171.97917,171.97917 0 0 0 103.7921,177.905 l 0.057,-300.4984 z" />
      <ellipse
         style="fill:#58341d;fill-opacity:1;stroke-width:0.568358"
         id="ellipse7724"
         transform="matrix(0.64903505,-0.7607585,0.78155594,0.62383517,0,0)"
         ry="1.8691993"
         rx="7.7405925"
         cy="-53.398247"
         cx="102.10112" />
      <path
         id="path7726"
         style="fill:#322116;fill-opacity:1;stroke-width:0.568206"
         d="m 29.1758,-116.9892 a 1.8681398,7.7408483 40.58472 0 0 -6.1034,4.8373 1.8681398,7.7408483 40.58472 0 0 -3.5629,7.0548 1.8681398,7.7408483 40.58472 0 0 0.9147,0.01 1.8681398,7.7408483 40.58472 0 1 3.7063,-6.0036 1.8681398,7.7408483 40.58472 0 1 5.5701,-4.7288 1.8681398,7.7408483 40.58472 0 0 -0.1435,-1.0527 1.8681398,7.7408483 40.58472 0 0 -0.3813,-0.1143 z" />
      <path
         style="fill:#272011;fill-opacity:1;stroke-width:2.64583"
         d="m -45.2434,-4.302 10.1376,3.9753 c 0,0 4.2215,-17.2046 11.149,-19.2669 l 0.4253,-15.1986 c -8.6222,5.6221 -16.8976,12.3813 -21.7119,30.4902 z"
         id="path7732"
         sodipodi:nodetypes="ccccc" />
      <path
         style="fill:#272011;fill-opacity:1;stroke-width:2.64583"
         d="m -45.2434,-4.302 10.1376,3.9753 C -38.795,40.086 -19.6892,75.0052 11.6229,106.9829 L 5.0124,117.2224 C -29.2,80.7094 -47.6057,40.5798 -45.2434,-4.302 Z"
         id="path7734"
         sodipodi:nodetypes="ccccc" />
      <path
         id="path7736"
         style="fill:#272011;fill-opacity:1;stroke-width:2.64583"
         d="M 103.8318,-31.3922 C 56.5141,-4.1723 20.9839,24.9268 -0.1904,56.3144 l 14.4098,3.6553 C 37.7099,27.6786 69.3828,2.0303 103.8299,-21.366 Z" />
      <ellipse
         style="fill:#58341d;fill-opacity:1;stroke-width:1.61256"
         id="ellipse7738"
         transform="matrix(0.64903505,-0.7607585,0.78155594,0.62383517,0,0)"
         ry="5.3033481"
         rx="21.96184"
         cy="-66.960014"
         cx="79.373886" />
      <ellipse
         style="fill:#58341d;fill-opacity:1;stroke-width:1.46367"
         id="ellipse7740"
         transform="matrix(0.3949517,-0.91870189,0.93111429,0.36472753,0,0)"
         ry="9.2524538"
         rx="19.93405"
         cy="2.1345935"
         cx="24.458319" />
      <ellipse
         style="fill:#58341d;fill-opacity:1;stroke-width:0.401779"
         id="ellipse7742"
         transform="matrix(0.3949517,-0.91870189,0.93111429,0.36472753,0,0)"
         ry="2.5398118"
         rx="5.4719253"
         cy="21.552197"
         cx="22.093206" />
      <ellipse
         style="fill:#58341d;fill-opacity:1;stroke-width:0.768497"
         id="ellipse7744"
         transform="matrix(0.3949517,-0.91870189,0.93111429,0.36472753,0,0)"
         ry="4.8579907"
         rx="10.466351"
         cy="11.862865"
         cx="-8.8091373" />
      <ellipse
         style="fill:#58341d;fill-opacity:1;stroke-width:1.22866"
         id="ellipse7746"
         transform="matrix(0.31320116,-0.94968681,0.95941194,0.28200838,0,0)"
         ry="4.040772"
         rx="16.733353"
         cy="-49.063938"
         cx="40.521755" />
      <ellipse
         style="fill:#58341d;fill-opacity:1;stroke-width:0.491861"
         id="ellipse7750"
         transform="matrix(0.32125424,-0.94699298,0.95698265,0.29014516,0,0)"
         ry="1.6176147"
         rx="6.6987495"
         cy="-58.149311"
         cx="44.289661" />
      <path
         id="path7764"
         style="fill:#322116;fill-opacity:1;stroke-width:0.49173"
         d="m -39.3736,-65.1743 a 1.6166978,6.6989708 18.854624 0 0 -3.5942,5.8914 1.6166978,6.6989708 18.854624 0 0 -0.6038,6.8129 1.6166978,6.6989708 18.854624 0 0 0.7515,-0.2991 1.6166978,6.6989708 18.854624 0 1 0.9107,-6.5136 1.6166978,6.6989708 18.854624 0 1 2.9482,-5.5753 1.6166978,6.6989708 18.854624 0 0 -0.3064,-0.2993 1.6166978,6.6989708 18.854624 0 0 -0.106,-0.017 z" />
      <path
         id="path7766"
         style="fill:#322116;fill-opacity:1;stroke-width:1.61213"
         d="m 12.355,-119.1887 a 5.3003421,21.962566 40.58472 0 0 -17.3168,13.7241 5.3003421,21.962566 40.58472 0 0 -10.1091,20.016 5.3003421,21.962566 40.58472 0 0 0.4805,0.244 5.300342,21.962566 40.58472 0 1 10.6866,-18.6723 5.300342,21.962566 40.58472 0 1 17.9199,-13.6335 5.3003421,21.962566 40.58472 0 0 -0.5786,-1.3535 5.3003421,21.962566 40.58472 0 0 -1.0825,-0.3248 z" />
      <path
         id="path7768"
         style="fill:#322116;fill-opacity:1;stroke-width:1.22833"
         d="m -29.4051,-68.2513 a 4.0384816,16.733906 18.368085 0 0 -8.8529,14.7922 4.0384816,16.733906 18.368085 0 0 -1.3639,17.0312 4.0384816,16.733906 18.368085 0 0 0.6703,-0.018 4.0384816,16.733906 18.368085 0 1 2.2809,-15.9547 4.0384816,16.733906 18.368085 0 1 8.4498,-14.7277 4.0384816,16.733906 18.368085 0 0 -0.9196,-1.0828 4.0384816,16.733906 18.368085 0 0 -0.2646,-0.04 z" />
      <path
         id="path7770"
         style="fill:#322116;fill-opacity:1;stroke-width:1.46328"
         d="m 17.6027,-40.3082 a 9.2461607,19.93697 23.776325 0 0 -14.5704,15.2421 9.2461607,19.93697 23.776325 0 0 0.7421,21.6883 9.2461607,19.93697 23.776325 0 0 0.7911,0.2255 9.2461607,19.93697 23.776325 0 1 0.5832,-20.855 9.2461607,19.93697 23.776325 0 1 15.7089,-15.1537 9.2461607,19.93697 23.776325 0 0 -1.3372,-0.8435 9.2461607,19.93697 23.776325 0 0 -1.9177,-0.3037 z" />
      <path
         id="path7772"
         style="fill:#322116;fill-opacity:1;stroke-width:0.401672"
         d="m 30.4281,-17.547 a 2.5380843,5.4727268 23.776325 0 0 -4,4.1841 2.5380843,5.4727268 23.776325 0 0 0.204,5.9536 2.5380843,5.4727268 23.776325 0 0 0.494,0.084 2.5380844,5.4727268 23.776325 0 1 0.3602,-5.5086 2.5380844,5.4727268 23.776325 0 1 4.0326,-4.1835 2.5380843,5.4727268 23.776325 0 0 -0.5647,-0.4466 2.5380843,5.4727268 23.776325 0 0 -0.5261,-0.083 z" />
      <path
         id="path7774"
         style="fill:#322116;fill-opacity:1;stroke-width:0.768292"
         d="M 10.6932,2.645 A 4.8546865,10.467884 23.776325 0 0 3.0431,10.6476 4.8546865,10.467884 23.776325 0 0 3.2047,21.9261 4.8546866,10.467884 23.776325 0 1 4.1012,11.7062 4.8546866,10.467884 23.776325 0 1 12.758,3.8629 4.8546866,10.467884 23.776325 0 1 12.9858,3.9718 4.8546865,10.467884 23.776325 0 0 11.6998,2.8043 4.8546865,10.467884 23.776325 0 0 10.6932,2.6449 Z" />
      <path
         id="path61716"
         style="fill:url(#linearGradient61742);fill-opacity:1;stroke-width:2.64583"
         d="m -173.9773,-38.5127 c -28.3903,20.5309 -53.4173,45.9529 -74.6896,74.0531 v 19.4102 c 15.8804,-32.6019 40.9345,-63.7318 76.7975,-90.4802 z" />
      <circle
         style="fill:url(#linearGradient61744);fill-opacity:1;stroke-width:1.0615"
         id="circle61718"
         cx="-161.44432"
         cy="-70.922379"
         r="10.583333"
         transform="rotate(-11.699794)" />
      <path
         id="path61722"
         style="fill:url(#linearGradient61738);fill-opacity:1;stroke-width:2.64583"
         d="m -126.4594,-111.3055 c -4.258,0.6113 -8.4756,1.3436 -12.6513,2.1908 -41.1877,8.3572 -78.2778,27.9792 -109.5391,54.4823 l -0.01,51.5534 c 29.4737,-53.1966 70.2136,-97.5328 122.6149,-104.1383 z" />
      <circle
         style="fill:url(#linearGradient61740);fill-opacity:1;stroke-width:1.0615"
         id="circle61724"
         cx="-101.26115"
         cy="-132.9684"
         r="10.583333"
         transform="rotate(-11.699794)" />
      <path
         style="fill:url(#linearGradient61734);fill-opacity:1;stroke-width:2.64583"
         d="m -231.8628,51.9943 c -5.9723,6.7119 -11.6189,14.7609 -16.8117,23.7839 v 19.2361 c 0.3231,-1.047 0.6494,-2.0762 0.9814,-3.0704 0.1747,-0.5268 0.3513,-1.0537 0.5346,-1.5812 0.028,-0.082 0.057,-0.1601 0.086,-0.2414 0.2036,-0.5817 0.4109,-1.1634 0.6251,-1.746 0.1941,-0.5298 0.3903,-1.0469 0.5869,-1.5621 0.039,-0.1013 0.076,-0.2025 0.1147,-0.3038 1.4218,-3.6984 2.9055,-7.0295 4.4306,-10.1153 0.2146,-0.4385 0.4369,-0.8772 0.6576,-1.3161 2.2737,-4.5223 4.8713,-9.0711 7.8093,-13.6447 0.023,-0.037 0.045,-0.074 0.068,-0.1106 v 5e-4 c 1.6644,-2.5864 3.4322,-5.1804 5.3154,-7.783 z"
         id="path61728" />
      <circle
         style="fill:url(#linearGradient61736);fill-opacity:1;stroke-width:1.0615"
         id="circle61730"
         cx="-234.72868"
         cy="3.8956139"
         r="10.583333"
         transform="rotate(-11.699794)" />
      <path
         style="fill:#a2a2a2;fill-opacity:1;stroke-width:2.64583"
         d="m -248.6893,152.7539 c 5.3213,47.4482 39.7316,90.5317 154.9528,121.4901 l -154.9758,-0.029 z"
         id="path64011"
         sodipodi:nodetypes="cccc" />
      <path
         style="fill:#ffffff;fill-opacity:0.621021;stroke-width:2.64583"
         d="m -248.6893,152.7539 c 0.1488,53.686 10.1708,103.9248 113.7971,121.4823 l -113.8201,-0.022 z"
         id="path63847"
         sodipodi:nodetypes="cccc" />
      <path
         id="path63816"
         style="fill:url(#linearGradient63818);fill-opacity:1;stroke-width:2.64583"
         d="M 103.83,-21.9148 C 70.2862,0.4309 39.3439,26.525 14.2194,59.9697 L -0.2235,56.3149 c 0,0 -24.1053,-40.4915 -23.7727,-75.9063 -6.7624,2.3494 -9.204,12.8506 -11.1425,19.2649 -2.495,34.9842 9.4832,70.4573 46.7287,107.3098 26.6379,-43.5804 58.0557,-80.3282 92.2369,-112.359 z" />
      <path
         id="path64741"
         style="fill:url(#linearGradient64743);fill-opacity:1;stroke-width:2.64583;filter:url(#filter24055)"
         d="m 230.10252,1285.8497 c -40.87659,25.0064 -74.27291,52.9153 -96.80029,85.0408 l 7.23832,1.8257 c 24.55426,-33.2297 55.9341,-58.6085 89.56197,-81.4012 z"
         transform="rotate(0.01086727,6921306.9,-665193.34)" />
      <path
         style="fill:url(#radialGradient64751);fill-opacity:1;stroke-width:2.64583;filter:url(#filter23418)"
         d="m 86.06867,1310.4435 c -4.65626,48.1053 18.80915,82.7498 48.51395,114.4078 l 3.30425,-5.1204 c -37.02493,-38.0408 -49.48705,-73.2784 -46.749,-107.3007 z"
         id="path64745"
         sodipodi:nodetypes="ccccc"
         transform="rotate(0.01086727,6921306.9,-665193.34)" />
      <path
         style="fill:url(#radialGradient64749);fill-opacity:1;stroke-width:2.64583;filter:url(#filter24067)"
         d="m 102.49437,1285.5618 c -7.10203,6.2772 -14.24934,12.4981 -16.4257,24.8817 l 5.0692,1.9867 c 6.04361,-18.7514 8.94291,-17.7943 11.14537,-19.2714 z"
         id="path64747"
         sodipodi:nodetypes="ccccc"
         transform="rotate(0.01086727,6921306.9,-665193.34)" />
    </g>
  </g>
</svg>
