<svg width="17" height="15" viewBox="0 0 17 15" fill="none" xmlns="http://www.w3.org/2000/svg">
<path d="M16.875 14.0625V12.1875H4.6875V14.0625H16.875ZM16.875 8.4375V6.5625H4.6875V8.4375H16.875ZM4.6875 2.8125H16.875V0.9375H4.6875V2.8125ZM0.9375 0.9375V2.8125H2.8125V0.9375H0.9375ZM0 0.9375C0 0.68886 0.098772 0.450403 0.274587 0.274588C0.450403 0.0987722 0.68886 0 0.9375 0H2.8125C3.06114 0 3.2996 0.0987722 3.47541 0.274588C3.65123 0.450403 3.75 0.68886 3.75 0.9375V2.8125C3.75 3.06114 3.65123 3.2996 3.47541 3.47541C3.2996 3.65123 3.06114 3.75 2.8125 3.75H0.9375C0.68886 3.75 0.450403 3.65123 0.274587 3.47541C0.098772 3.2996 0 3.06114 0 2.8125V0.9375ZM0.9375 6.5625V8.4375H2.8125V6.5625H0.9375ZM0 6.5625C0 6.31386 0.098772 6.0754 0.274587 5.89959C0.450403 5.72377 0.68886 5.625 0.9375 5.625H2.8125C3.06114 5.625 3.2996 5.72377 3.47541 5.89959C3.65123 6.0754 3.75 6.31386 3.75 6.5625V8.4375C3.75 8.68614 3.65123 8.9246 3.47541 9.10041C3.2996 9.27623 3.06114 9.375 2.8125 9.375H0.9375C0.68886 9.375 0.450403 9.27623 0.274587 9.10041C0.098772 8.9246 0 8.68614 0 8.4375V6.5625ZM0.9375 12.1875V14.0625H2.8125V12.1875H0.9375ZM0 12.1875C0 11.9389 0.098772 11.7004 0.274587 11.5246C0.450403 11.3488 0.68886 11.25 0.9375 11.25H2.8125C3.06114 11.25 3.2996 11.3488 3.47541 11.5246C3.65123 11.7004 3.75 11.9389 3.75 12.1875V14.0625C3.75 14.3111 3.65123 14.5496 3.47541 14.7254C3.2996 14.9012 3.06114 15 2.8125 15H0.9375C0.68886 15 0.450403 14.9012 0.274587 14.7254C0.098772 14.5496 0 14.3111 0 14.0625V12.1875Z" fill="#ffffff"/>
</svg>
