<svg width="17" height="15" viewBox="0 0 17 15" fill="none" xmlns="http://www.w3.org/2000/svg">
<path d="M13.5 9V0H16.5V9H13.5ZM10.5 0C10.8978 0 11.2794 0.158035 11.5607 0.43934C11.842 0.720644 12 1.10218 12 1.5V9C12 9.4125 11.835 9.7875 11.5575 10.0575L6.6225 15L5.8275 14.205C5.625 14.0025 5.4975 13.725 5.4975 13.41L5.52 13.1775L6.2325 9.75H1.5C0.6675 9.75 0 9.075 0 8.25V6.75C0 6.555 0.0375 6.375 0.105 6.2025L2.37 0.915C2.595 0.375 3.1275 0 3.75 0H10.5ZM10.5 1.5H3.7275L1.5 6.75V8.25H8.085L7.2375 12.24L10.5 8.9775V1.5Z" fill="#ffffff"/>
</svg>
