<svg width="17" height="15" viewBox="0 0 17 15" fill="none" xmlns="http://www.w3.org/2000/svg">
<path d="M3 6V15H0V6H3ZM6 15C5.60218 15 5.22064 14.842 4.93934 14.5607C4.65804 14.2794 4.5 13.8978 4.5 13.5V6C4.5 5.5875 4.665 5.2125 4.9425 4.9425L9.8775 0L10.6725 0.795C10.875 0.9975 11.0025 1.275 11.0025 1.5825L10.98 1.8225L10.2675 5.25H15C15.8325 5.25 16.5 5.925 16.5 6.75V8.25C16.5 8.445 16.4625 8.625 16.395 8.7975L14.13 14.085C13.905 14.625 13.3725 15 12.75 15H6ZM6 13.5H12.7725L15 8.25V6.75H8.4075L9.255 2.76L6 6.0225V13.5Z" fill="#ffffff"/>
</svg>
