<svg width="18" height="15" viewBox="0 0 18 15" fill="none" xmlns="http://www.w3.org/2000/svg">
<path d="M15.4167 11.25C15.8587 11.25 16.2826 11.092 16.5952 10.8107C16.9077 10.5294 17.0833 10.1478 17.0833 9.75V1.5C17.0833 1.10218 16.9077 0.720644 16.5952 0.43934C16.2826 0.158035 15.8587 0 15.4167 0H6.63333C6.925 0.4575 7.08333 0.975 7.08333 1.5H15.4167V9.75H7.91667V11.25M11.25 3.75V5.25H6.25V15H4.58333V10.5H2.91667V15H1.25V9H0V5.25C0 4.85218 0.175595 4.47064 0.488155 4.18934C0.800716 3.90804 1.22464 3.75 1.66667 3.75H11.25ZM5.41667 1.5C5.41667 1.89782 5.24107 2.27936 4.92851 2.56066C4.61595 2.84196 4.19203 3 3.75 3C3.30797 3 2.88405 2.84196 2.57149 2.56066C2.25893 2.27936 2.08333 1.89782 2.08333 1.5C2.08333 1.10218 2.25893 0.720644 2.57149 0.43934C2.88405 0.158035 3.30797 0 3.75 0C4.19203 0 4.61595 0.158035 4.92851 0.43934C5.24107 0.720644 5.41667 1.10218 5.41667 1.5Z" fill="#ffffff"/>
</svg>
